<svg xmlns="http://www.w3.org/2000/svg" width="150" height="150" viewBox="0 0 150 150" fill="none"><g clip-path="url(#clip0_28_228)"><path d="M79.3379 7.6523C78.6237 7.61368 78.0036 7.41506 77.4776 7.06746C76.9461 6.71987 76.553 6.24538 76.2817 5.65502C76.016 5.06467 75.8997 4.38603 75.944 3.61912C75.9883 2.85221 76.1876 2.19565 76.5364 1.6384C76.8852 1.08115 77.3558 0.661827 77.9427 0.374925C78.5295 0.0880237 79.1995 -0.0333579 79.9469 0.0107809C80.5282 0.0438849 81.0431 0.165266 81.4805 0.380443C81.9179 0.590102 82.2667 0.882521 82.5324 1.2577C82.7926 1.62736 82.9587 2.07427 83.0196 2.5929L81.9234 2.53221C81.857 2.04668 81.6521 1.6715 81.3033 1.39563C80.9545 1.11977 80.4895 0.965281 79.8971 0.932177C79.3489 0.899073 78.8673 0.992868 78.4465 1.20804C78.0257 1.42322 77.688 1.74323 77.4444 2.16254C77.1953 2.58186 77.0568 3.09498 77.0236 3.69637C76.9904 4.28672 77.0735 4.80535 77.2728 5.26329C77.4721 5.72123 77.7655 6.08538 78.1531 6.35573C78.5406 6.62608 78.9946 6.77504 79.5095 6.80815C79.9358 6.83022 80.3178 6.78056 80.6611 6.64814C81.0044 6.51573 81.2812 6.33366 81.4916 6.09089C81.702 5.85365 81.8182 5.57226 81.8348 5.25226L81.8625 4.78328L79.5206 4.65087L79.5704 3.79568L81.9954 3.93361C82.2944 3.95016 82.5269 4.03844 82.6819 4.20396C82.8369 4.36396 82.9089 4.59018 82.8923 4.87708L82.7262 7.74058L81.7241 7.6854L81.785 6.60401H81.7407C81.558 6.9516 81.2535 7.22747 80.8216 7.42057C80.3898 7.61368 79.8971 7.69644 79.349 7.66334L79.3379 7.6523Z" fill="white"></path><path d="M90.3554 9.03778L85.2286 8.10535L86.574 0.77832L91.7008 1.71075L91.5402 2.59904L87.4543 1.8542L87.0501 4.06114L90.9146 4.76736L90.754 5.63358L86.8896 4.92736L86.4356 7.40465L90.5215 8.14949L90.361 9.03778H90.3554Z" fill="white"></path><path d="M95.5819 10.4996L94.5743 10.1961L96.4899 3.93391L93.9376 3.16149L94.2033 2.30078L100.31 4.15461L100.044 5.01531L97.492 4.24289L95.5764 10.5051L95.5819 10.4996Z" fill="white"></path><path d="M103.781 13.655L106.976 6.92383L107.928 7.37073L104.734 14.1019L103.781 13.655Z" fill="white"></path><path d="M113.182 18.8474L112.164 18.235L111.411 10.7038L111.377 10.6873L108.238 15.8736L107.386 15.3605L111.245 8.98242L112.263 9.59485L113 17.1481L113.033 17.1646L116.189 11.9508L117.041 12.4639L113.177 18.8419L113.182 18.8474Z" fill="white"></path><path d="M120.806 24.8998L120.02 24.2046L124.394 19.3163L122.406 17.5452L123.01 16.8721L127.777 21.1094L127.173 21.7825L125.186 20.0114L120.812 24.8998H120.806Z" fill="white"></path><path d="M126.055 30.3564C125.556 29.7881 125.235 29.1922 125.102 28.5632C124.97 27.9343 125.014 27.3108 125.246 26.7039C125.473 26.0915 125.883 25.5342 126.464 25.0211C127.051 24.508 127.66 24.1714 128.297 24.0225C128.934 23.8735 129.554 23.9066 130.163 24.1163C130.772 24.3259 131.331 24.7176 131.829 25.2804C132.333 25.8487 132.654 26.4501 132.787 27.0791C132.92 27.708 132.876 28.326 132.643 28.9329C132.411 29.5398 132.006 30.1026 131.42 30.6157C130.838 31.1288 130.229 31.4598 129.593 31.6088C128.956 31.7633 128.33 31.7302 127.721 31.5205C127.112 31.3109 126.553 30.9191 126.055 30.3564ZM126.747 29.7495C127.3 30.3729 127.932 30.6929 128.635 30.6984C129.338 30.7095 130.03 30.4115 130.711 29.8157C131.392 29.2143 131.774 28.5687 131.846 27.868C131.918 27.1673 131.685 26.5108 131.132 25.8873C130.584 25.2694 129.952 24.9494 129.249 24.9383C128.546 24.9273 127.849 25.2197 127.168 25.8211C126.487 26.4225 126.105 27.0735 126.033 27.7687C125.961 28.4694 126.193 29.126 126.747 29.7495Z" fill="white"></path><path d="M131.652 37.6066C131.281 37.0549 131.054 36.5252 130.971 36.0231C130.883 35.5155 130.943 35.0465 131.148 34.6162C131.353 34.1858 131.713 33.7996 132.228 33.4576L136.22 30.8037L136.807 31.6865L132.859 34.3072C132.339 34.6548 132.04 35.0576 131.973 35.521C131.907 35.9845 132.073 36.5142 132.477 37.1155C132.87 37.7004 133.296 38.0535 133.756 38.1694C134.215 38.2852 134.703 38.1694 135.207 37.8328L139.16 35.2066L139.735 36.0728L135.727 38.7321C134.98 39.2287 134.254 39.3777 133.551 39.1735C132.848 38.9749 132.211 38.4507 131.647 37.6011L131.652 37.6066Z" fill="white"></path><path d="M136.225 45.5847C135.893 44.906 135.744 44.2495 135.777 43.6039C135.81 42.9639 136.02 42.3736 136.402 41.8439C136.784 41.3142 137.327 40.8784 138.03 40.5363C138.733 40.1942 139.409 40.0287 140.062 40.0508C140.715 40.0728 141.308 40.266 141.839 40.6301C142.371 40.9942 142.808 41.5129 143.14 42.1915C143.395 42.7101 143.539 43.2067 143.567 43.6867C143.594 44.1667 143.511 44.6191 143.317 45.0329C143.124 45.4467 142.819 45.8164 142.409 46.1364L141.939 45.1819C142.315 44.8729 142.537 44.4978 142.603 44.0509C142.67 43.6039 142.576 43.1184 142.315 42.5998C141.944 41.8439 141.418 41.3694 140.737 41.1708C140.056 40.9722 139.309 41.0715 138.501 41.4687C137.681 41.8715 137.15 42.4012 136.895 43.0577C136.64 43.7143 136.701 44.4205 137.072 45.1764C137.332 45.7005 137.654 46.0702 138.052 46.2909C138.445 46.5116 138.877 46.5668 139.353 46.4564L139.824 47.4109C139.326 47.5378 138.849 47.5544 138.401 47.4551C137.953 47.3557 137.543 47.1461 137.172 46.8316C136.807 46.5171 136.491 46.0978 136.236 45.5847H136.225Z" fill="white"></path><path d="M138.556 50.4115L145.643 48.0391L145.981 49.0432L142.996 50.0419L144.364 54.1026L147.348 53.104L147.686 54.1081L140.599 56.4806L140.261 55.4764L143.506 54.3895L142.138 50.3288L138.894 51.4157L138.556 50.4115Z" fill="white"></path><path opacity="0.1" d="M142.681 81.5407L150 85.2042L149.884 86.1366L142.57 82.4676L142.686 81.5352L142.681 81.5407Z" fill="white"></path><path d="M132.156 111.577C132.543 110.981 133.02 110.54 133.584 110.253C134.149 109.966 134.758 109.856 135.406 109.917C136.054 109.977 136.701 110.214 137.349 110.628C137.997 111.042 138.473 111.539 138.789 112.118C139.104 112.697 139.237 113.31 139.198 113.961C139.16 114.612 138.933 115.246 138.528 115.875C138.213 116.366 137.853 116.747 137.449 117.023C137.05 117.299 136.618 117.459 136.164 117.503C135.71 117.547 135.24 117.47 134.758 117.266L135.356 116.344C135.81 116.526 136.242 116.532 136.652 116.366C137.061 116.201 137.427 115.87 137.748 115.379C138.047 114.921 138.202 114.457 138.224 113.983C138.246 113.508 138.13 113.061 137.886 112.642C137.643 112.223 137.261 111.848 136.757 111.522C136.258 111.202 135.766 111.014 135.267 110.965C134.769 110.915 134.31 110.987 133.883 111.191C133.457 111.395 133.103 111.71 132.82 112.146C132.588 112.499 132.449 112.857 132.394 113.221C132.339 113.586 132.366 113.917 132.466 114.215C132.571 114.518 132.759 114.755 133.025 114.926L133.418 115.18L134.692 113.216L135.411 113.679L134.094 115.71C133.933 115.964 133.739 116.118 133.518 116.173C133.296 116.228 133.069 116.173 132.826 116.024L130.406 114.468L130.954 113.624L131.868 114.215L131.89 114.176C131.674 113.845 131.586 113.448 131.63 112.973C131.674 112.504 131.846 112.035 132.145 111.577H132.156Z" fill="white"></path><path d="M125.523 120.438L128.867 116.454L134.603 121.232L131.259 125.216L130.567 124.636L133.23 121.464L131.503 120.024L128.983 123.031L128.303 122.462L130.822 119.456L128.884 117.839L126.221 121.011L125.529 120.432L125.523 120.438Z" fill="white"></path><path d="M121.67 124.256L122.434 123.533L126.963 128.273L128.895 126.441L129.521 127.092L124.898 131.478L124.272 130.827L126.204 128.995L121.675 124.256H121.67Z" fill="white"></path><path d="M114.871 129.828L119.189 135.908L118.331 136.515L114.013 130.435L114.871 129.828Z" fill="white"></path><path d="M105.736 135.445L106.771 134.86L113.725 137.894L113.758 137.878L110.757 132.603L111.627 132.112L115.314 138.595L114.279 139.18L107.308 136.118L107.275 136.134L110.287 141.431L109.418 141.922L105.73 135.445H105.736Z" fill="white"></path><path d="M96.7114 139.087L97.7079 138.75L99.8284 144.946L102.353 144.091L102.646 144.946L96.6006 146.998L96.3072 146.149L98.8318 145.288L96.7114 139.092V139.087Z" fill="white"></path><path d="M89.3478 140.957C90.0897 140.802 90.7651 140.819 91.3852 141.012C91.9998 141.205 92.5202 141.553 92.941 142.055C93.3617 142.557 93.6496 143.186 93.8102 143.942C93.9707 144.703 93.9597 145.398 93.777 146.022C93.5943 146.645 93.2621 147.169 92.7749 147.594C92.2877 148.019 91.6786 148.306 90.9368 148.466C90.1893 148.62 89.5083 148.604 88.8938 148.411C88.2792 148.218 87.7588 147.87 87.3436 147.373C86.9283 146.877 86.6349 146.242 86.4743 145.481C86.3138 144.725 86.3249 144.035 86.5076 143.406C86.6903 142.777 87.0225 142.253 87.5097 141.828C87.9969 141.404 88.6059 141.111 89.3478 140.957ZM89.536 141.856C88.7166 142.027 88.1297 142.419 87.7754 143.026C87.4211 143.633 87.338 144.377 87.5207 145.26C87.709 146.149 88.091 146.794 88.6613 147.208C89.2315 147.616 89.9291 147.737 90.743 147.566C91.5568 147.395 92.1437 147.009 92.498 146.402C92.8579 145.795 92.941 145.051 92.7527 144.162C92.5645 143.274 92.1825 142.628 91.6122 142.215C91.0364 141.806 90.3444 141.685 89.5305 141.856H89.536Z" fill="white"></path><path d="M80.2624 142.232C80.9268 142.182 81.4971 142.248 81.9843 142.419C82.4715 142.591 82.848 142.877 83.1248 143.269C83.4016 143.661 83.5567 144.163 83.6009 144.775L83.9442 149.542L82.8867 149.62L82.549 144.908C82.5047 144.284 82.2943 143.826 81.9289 143.539C81.5635 143.253 81.0154 143.137 80.2901 143.186C79.587 143.236 79.0666 143.435 78.7399 143.777C78.4133 144.119 78.2693 144.593 78.3136 145.2L78.6569 149.923L77.616 149.995L77.2727 145.206C77.2063 144.312 77.4388 143.611 77.9593 143.098C78.4797 142.585 79.2493 142.293 80.268 142.221L80.2624 142.232Z" fill="white"></path><path d="M71.0331 142.27C71.7861 142.314 72.4394 142.508 72.982 142.855C73.5245 143.203 73.9342 143.672 74.211 144.262C74.4879 144.852 74.5986 145.542 74.5543 146.315C74.51 147.092 74.3162 147.76 73.9785 148.312C73.6408 148.864 73.1813 149.283 72.5999 149.57C72.0186 149.851 71.3542 149.972 70.5957 149.928C70.0199 149.895 69.5106 149.774 69.0787 149.564C68.6413 149.355 68.2925 149.057 68.0268 148.687C67.761 148.312 67.5894 147.87 67.5119 147.352L68.5804 147.412C68.6635 147.892 68.8849 148.268 69.2393 148.544C69.5992 148.819 70.0642 148.979 70.6511 149.012C71.4926 149.062 72.1681 148.836 72.6774 148.345C73.1868 147.854 73.4636 147.153 73.519 146.254C73.5688 145.349 73.3695 144.621 72.9211 144.08C72.4726 143.534 71.8248 143.241 70.9833 143.192C70.4019 143.159 69.9147 143.258 69.5272 143.49C69.1396 143.721 68.8794 144.069 68.741 144.538L67.6725 144.477C67.8053 143.981 68.0268 143.561 68.3368 143.219C68.6469 142.877 69.0289 142.623 69.4829 142.458C69.9369 142.292 70.4573 142.226 71.0331 142.259V142.27Z" fill="white"></path><path d="M65.6849 141.923L64.2842 149.238L63.2433 149.04L63.8357 145.961L59.6114 145.156L59.0245 148.234L57.9836 148.036L59.3844 140.72L60.4252 140.918L59.783 144.267L64.0073 145.073L64.6496 141.724L65.6904 141.923H65.6849Z" fill="white"></path><path opacity="0.1" d="M36.4522 130.21L29.6424 134.745L28.8894 134.188L35.6993 129.652L36.4522 130.21Z" fill="white"></path><path d="M15.3748 106.314C15.707 106.943 15.862 107.572 15.8344 108.206C15.8067 108.835 15.6074 109.42 15.2364 109.955C14.8655 110.49 14.3395 110.937 13.6585 111.29C12.9775 111.649 12.3076 111.82 11.6488 111.809C10.9899 111.798 10.3865 111.616 9.83835 111.263C9.29024 110.91 8.84178 110.402 8.49298 109.74C8.22169 109.227 8.06114 108.725 8.01684 108.245C7.97255 107.759 8.04453 107.312 8.22723 106.899C8.40993 106.485 8.7089 106.115 9.12414 105.795L9.6335 106.761C9.25148 107.064 9.03556 107.434 8.97466 107.875C8.91929 108.317 9.03002 108.797 9.30131 109.315C9.55599 109.801 9.88818 110.165 10.2868 110.413C10.691 110.662 11.1339 110.783 11.6266 110.777C12.1138 110.772 12.6287 110.628 13.1602 110.347C13.6807 110.071 14.0904 109.735 14.3783 109.326C14.6662 108.924 14.8267 108.482 14.8599 108.013C14.8932 107.544 14.788 107.081 14.5499 106.623C14.3506 106.248 14.107 105.95 13.8191 105.723C13.5312 105.497 13.2267 105.359 12.9111 105.299C12.5955 105.243 12.2965 105.288 12.0142 105.437L11.599 105.657L12.6896 107.721L11.9311 108.118L10.8017 105.977C10.6633 105.712 10.619 105.47 10.6799 105.255C10.7408 105.034 10.8958 104.863 11.1505 104.725L13.6973 103.39L14.1679 104.278L13.2045 104.786L13.2267 104.824C13.6198 104.797 14.0129 104.918 14.4059 105.188C14.7935 105.459 15.1202 105.834 15.3748 106.319V106.314Z" fill="white"></path><path d="M10.8792 96.2008L12.7228 101.062L5.73025 103.693L3.8866 98.8326L4.73368 98.5126L6.20085 102.386L8.30471 101.591L6.91505 97.9278L7.74553 97.6133L9.13518 101.277L11.4993 100.388L10.0321 96.5153L10.8792 96.1953V96.2008Z" fill="white"></path><path d="M9.43969 90.9808L9.69437 91.996L3.32187 93.5905L3.96964 96.1671L3.09488 96.3878L1.53912 90.2139L2.41389 89.9932L3.06166 92.5698L9.43415 90.9753L9.43969 90.9808Z" fill="white"></path><path d="M7.92827 82.3514L0.492766 83.0962L0.387573 82.0534L7.82307 81.3086L7.92827 82.3514Z" fill="white"></path><path d="M7.47424 71.6699L7.49085 72.8562L1.48376 77.4852V77.5238L7.56282 77.4245L7.57943 78.4176L0.105176 78.539L0.0830296 77.3528L6.1178 72.7237V72.6851L0.0110553 72.7844L-0.0055542 71.7913L7.4687 71.6699H7.47424Z" fill="white"></path><path d="M8.76977 62.0203L8.57599 63.0521L2.11491 61.8548L1.6277 64.47L0.736328 64.3045L1.90453 58.0479L2.7959 58.2134L2.30869 60.8286L8.76977 62.0259V62.0203Z" fill="white"></path><path d="M10.7463 54.7103C10.5193 55.4276 10.1705 56.0069 9.69991 56.4483C9.22931 56.8896 8.67012 57.1655 8.02789 57.2869C7.38566 57.4083 6.6936 57.3476 5.95171 57.1159C5.20428 56.8841 4.60634 56.531 4.14681 56.0676C3.69282 55.6041 3.39385 55.0579 3.26098 54.4234C3.1281 53.7889 3.17239 53.1213 3.39939 52.3985C3.62638 51.6758 3.98072 51.0909 4.45132 50.6495C4.92192 50.2081 5.47557 49.9323 6.1178 49.8109C6.76004 49.6895 7.4521 49.7502 8.19398 49.9875C8.93587 50.2192 9.53381 50.5668 9.99334 51.0302C10.4529 51.4937 10.7463 52.0454 10.8847 52.6744C11.0176 53.3034 10.9733 53.9765 10.7463 54.6993V54.7103ZM9.866 54.4344C10.1151 53.6399 10.0653 52.9392 9.70545 52.3323C9.34557 51.7254 8.73656 51.2895 7.87841 51.0192C7.00918 50.7488 6.25621 50.7599 5.61952 51.0523C4.98282 51.3502 4.53437 51.8909 4.28523 52.6854C4.03608 53.4744 4.08591 54.1751 4.44025 54.782C4.79458 55.3889 5.4036 55.8303 6.27282 56.1007C7.14205 56.371 7.89501 56.36 8.53171 56.062C9.16841 55.7641 9.61686 55.2179 9.866 54.4289V54.4344Z" fill="white"></path><path d="M14.0903 46.2027C13.808 46.7986 13.4703 47.2676 13.0772 47.6041C12.6896 47.9407 12.2522 48.1283 11.7761 48.1779C11.3 48.2221 10.7795 48.1172 10.2259 47.8524L5.89081 45.8055L6.3448 44.851L10.63 46.8703C11.1948 47.1351 11.6986 47.1793 12.1304 47.0027C12.5623 46.8262 12.9332 46.4069 13.2433 45.7503C13.5478 45.1158 13.6253 44.5696 13.4869 44.1172C13.3485 43.6647 13.0052 43.3116 12.4515 43.0468L8.15523 41.0219L8.60369 40.084L12.9554 42.1364C13.7692 42.5171 14.2675 43.0633 14.4558 43.7641C14.644 44.4648 14.5222 45.2813 14.0848 46.1972L14.0903 46.2027Z" fill="white"></path><path d="M18.6026 38.18C18.1929 38.8145 17.7002 39.2834 17.1299 39.5814C16.5596 39.8793 15.9451 40.0062 15.2918 39.951C14.6385 39.8959 13.9852 39.6586 13.3263 39.2393C12.6675 38.82 12.1803 38.3234 11.8647 37.7551C11.5491 37.1869 11.4107 36.5799 11.4495 35.9399C11.4882 35.2944 11.7097 34.6599 12.1194 34.0254C12.435 33.5399 12.7893 33.1647 13.1879 32.8888C13.5866 32.6185 14.0184 32.4585 14.4779 32.4088C14.9375 32.3592 15.4081 32.4309 15.8953 32.6185L15.3139 33.5178C14.8544 33.3523 14.417 33.3578 13.9963 33.5344C13.5755 33.7054 13.2101 34.0365 12.8945 34.5275C12.4405 35.2337 12.3021 35.9289 12.4793 36.6131C12.6564 37.2972 13.127 37.882 13.8911 38.3731C14.6551 38.8641 15.3859 39.0517 16.0835 38.9303C16.7811 38.809 17.3569 38.3952 17.8109 37.6889C18.1265 37.1979 18.2815 36.7289 18.2649 36.282C18.2483 35.8351 18.0766 35.4323 17.7389 35.0847L18.3203 34.1909C18.6857 34.5496 18.9459 34.9468 19.0898 35.3882C19.2338 35.8296 19.267 36.282 19.1895 36.7565C19.1064 37.231 18.9127 37.7165 18.5971 38.1965L18.6026 38.18Z" fill="white"></path><path d="M21.548 33.7112L15.851 28.8891L16.5375 28.0835L18.9348 30.1139L21.7196 26.8476L19.3223 24.8173L20.0089 24.0117L25.7059 28.8339L25.0194 29.6394L22.4117 27.4325L19.6268 30.6987L22.2345 32.9057L21.548 33.7112Z" fill="white"></path><path opacity="0.1" d="M46.1521 14.0862L45.532 5.94808L46.3902 5.56738L47.0103 13.7055L46.1521 14.0862Z" fill="white"></path></g><defs><clipPath id="clip0_28_228"><rect width="150" height="150" fill="white"></rect></clipPath></defs></svg>