<svg width="11" height="14" viewBox="0 0 11 14" fill="none" xmlns="http://www.w3.org/2000/svg">
<g opacity="0.3">
<path d="M10.3576 2.95222C9.94929 2.14718 9.34515 1.45771 8.60073 0.947179C7.85631 0.436653 6.99549 0.121458 6.09742 0.0305718C5.69115 -0.0101906 5.28183 -0.0101906 4.87557 0.0305718C3.97751 0.121517 3.11671 0.436703 2.37226 0.947169C1.62781 1.45763 1.02359 2.14701 0.615117 2.95195C0.101194 3.979 -0.0973129 5.13517 0.0445982 6.27483C0.186509 7.41449 0.662492 8.48667 1.4126 9.35633L5.07039 13.8035C5.1209 13.8649 5.1844 13.9144 5.25633 13.9484C5.32825 13.9824 5.40681 14 5.48636 14C5.5659 14 5.64446 13.9824 5.71639 13.9484C5.78831 13.9144 5.85181 13.8649 5.90233 13.8035L9.56012 9.35633C10.3102 8.48672 10.7862 7.41458 10.9281 6.27497C11.07 5.13535 10.8715 3.97923 10.3576 2.95222ZM5.48636 7.53817C5.06036 7.53817 4.64393 7.41185 4.28972 7.17518C3.93551 6.93851 3.65944 6.60211 3.49642 6.20854C3.3334 5.81497 3.29074 5.38189 3.37385 4.96408C3.45696 4.54627 3.6621 4.16248 3.96333 3.86125C4.26455 3.56002 4.64834 3.35489 5.06615 3.27178C5.48397 3.18867 5.91704 3.23132 6.31061 3.39435C6.70419 3.55737 7.04058 3.83344 7.27725 4.18765C7.51392 4.54185 7.64025 4.95828 7.64025 5.38428C7.63958 5.95532 7.41244 6.50279 7.00865 6.90657C6.60486 7.31036 6.0574 7.5375 5.48636 7.53817Z" fill="#FFF"/>
</g>
</svg>
