<svg width="14" height="14" viewBox="0 0 14 14" fill="none" xmlns="http://www.w3.org/2000/svg">
<g opacity="0.3">
<path d="M11.9441 2.04882C11.1566 1.26092 10.1922 0.672619 9.13126 0.332936C8.07032 -0.00674672 6.94356 -0.0879768 5.84487 0.0960135C4.74258 0.279212 3.70027 0.723962 2.80528 1.39299C1.9103 2.06201 1.18872 2.93582 0.701022 3.94118C0.213324 4.94654 -0.0262818 6.05416 0.00228538 7.1712C0.0308525 8.28823 0.326761 9.38215 0.865209 10.3613C0.880194 10.4011 0.880194 10.4451 0.865209 10.4849L0.194745 12.7958C0.150902 12.9367 0.146534 13.0869 0.182115 13.2302C0.217695 13.3734 0.291864 13.5041 0.396555 13.6081C0.501246 13.7122 0.632452 13.7855 0.775906 13.8201C0.91936 13.8548 1.06957 13.8495 1.2102 13.8047L3.50801 13.1147C3.55013 13.0998 3.59608 13.0998 3.6382 13.1147C4.66421 13.6909 5.82032 13.9956 6.99702 14C7.50224 13.9989 8.00604 13.9466 8.50069 13.8438C9.72771 13.5735 10.8594 12.978 11.7772 12.12C12.695 11.2619 13.3651 10.1727 13.7172 8.96658C14.0693 7.76047 14.0905 6.48186 13.7786 5.26475C13.4666 4.04764 12.833 2.93686 11.9441 2.04882ZM4.39328 8.10903C4.23235 8.10903 4.07504 8.06131 3.94123 7.9719C3.80742 7.8825 3.70313 7.75542 3.64155 7.60674C3.57996 7.45806 3.56385 7.29446 3.59525 7.13662C3.62664 6.97879 3.70414 6.8338 3.81793 6.72001C3.93172 6.60622 4.07671 6.52872 4.23454 6.49733C4.39238 6.46593 4.55598 6.48205 4.70466 6.54363C4.85334 6.60521 4.98042 6.7095 5.06982 6.84331C5.15923 6.97712 5.20695 7.13443 5.20695 7.29536C5.20695 7.51116 5.12122 7.71812 4.96863 7.87071C4.81604 8.02331 4.60908 8.10903 4.39328 8.10903ZM6.99702 8.10903C6.8361 8.10903 6.67878 8.06131 6.54497 7.9719C6.41117 7.8825 6.30688 7.75542 6.24529 7.60674C6.18371 7.45806 6.16759 7.29446 6.19899 7.13662C6.23038 6.97879 6.30788 6.8338 6.42167 6.72001C6.53547 6.60622 6.68045 6.52872 6.83828 6.49733C6.99612 6.46593 7.15972 6.48205 7.3084 6.54363C7.45708 6.60521 7.58416 6.7095 7.67357 6.84331C7.76297 6.97712 7.81069 7.13443 7.81069 7.29536C7.81069 7.51116 7.72497 7.71812 7.57238 7.87071C7.41978 8.02331 7.21282 8.10903 6.99702 8.10903ZM9.60077 8.10903C9.43984 8.10903 9.28252 8.06131 9.14872 7.9719C9.01491 7.8825 8.91062 7.75542 8.84903 7.60674C8.78745 7.45806 8.77134 7.29446 8.80273 7.13662C8.83413 6.97879 8.91162 6.8338 9.02542 6.72001C9.13921 6.60622 9.28419 6.52872 9.44203 6.49733C9.59986 6.46593 9.76347 6.48205 9.91214 6.54363C10.0608 6.60521 10.1879 6.7095 10.2773 6.84331C10.3667 6.97712 10.4144 7.13443 10.4144 7.29536C10.4144 7.51116 10.3287 7.71812 10.1761 7.87071C10.0235 8.02331 9.81657 8.10903 9.60077 8.10903Z" fill="#FFF"/>
</g>
</svg>
