<svg xmlns="http://www.w3.org/2000/svg" width="152" height="30" viewBox="0 0 152 30" fill="none"><g clip-path="url(#clip0_8_424)"><path fill-rule="evenodd" clip-rule="evenodd" d="M19.23 8.76398C17.9926 7.93988 16.5378 7.5 15.0495 7.5V0C18.026 0 20.9357 0.879735 23.4106 2.52796C25.8855 4.17617 27.8143 6.51886 28.9534 9.25973C30.0925 12.0006 30.3905 15.0167 29.8098 17.9263C29.2291 20.8361 27.7958 23.5088 25.6911 25.6066C23.5864 27.7044 20.9048 29.133 17.9855 29.7118C15.0662 30.2906 12.0402 29.9935 9.29029 28.8582C6.54036 27.7229 4.18996 25.8003 2.5363 23.3335C0.882639 20.8668 0 17.9667 0 15H7.52475C7.52475 16.4834 7.96608 17.9334 8.7929 19.1668C9.61972 20.4002 10.7949 21.3614 12.1699 21.9291C13.5449 22.4968 15.0579 22.6453 16.5175 22.3559C17.9772 22.0665 19.3179 21.3522 20.3703 20.3033C21.4227 19.2544 22.1393 17.918 22.4296 16.4632C22.72 15.0083 22.571 13.5003 22.0015 12.1299C21.4319 10.7594 20.4675 9.58807 19.23 8.76398Z" fill="#2A94FF"></path><path fill-rule="evenodd" clip-rule="evenodd" d="M7.52475 3.9637e-06C7.52475 0.984918 7.33012 1.96019 6.95196 2.87013C6.57381 3.78007 6.01954 4.60686 5.3208 5.30331C4.62207 5.99975 3.79255 6.55219 2.8796 6.9291C1.96665 7.30601 0.988161 7.5 3.28914e-07 7.5L0 15C1.97633 15 3.9333 14.612 5.7592 13.8582C7.5851 13.1044 9.24415 11.9995 10.6416 10.6066C12.0391 9.21375 13.1476 7.56015 13.9039 5.74026C14.6602 3.92037 15.0495 1.96983 15.0495 0L7.52475 3.9637e-06Z" fill="#0A0A0A"></path><path d="M94.5252 10.8394H90.8741V22.3986H94.5252V10.8394Z" fill="#0A0A0A"></path><path d="M91.2805 8.67495C91.662 9.0555 92.1391 9.24577 92.7117 9.24577C93.2843 9.24577 93.7539 9.0555 94.1196 8.67495C94.4861 8.27857 94.6689 7.80285 94.6689 7.24789C94.6689 6.67708 94.4861 6.20137 94.1196 5.82083C93.7539 5.44027 93.2843 5.25 92.7117 5.25C92.1391 5.25 91.662 5.44027 91.2805 5.82083C90.914 6.20137 90.7312 6.67708 90.7312 7.24789C90.7312 7.80285 90.914 8.27857 91.2805 8.67495Z" fill="#2A94FF"></path><path d="M38.4938 22.3988V5.60693H42.2403V19.1165H49.7094V22.3988H38.4938Z" fill="#0A0A0A"></path><path fill-rule="evenodd" clip-rule="evenodd" d="M56.4563 22.6601C55.2631 22.6601 54.1814 22.3985 53.2109 21.8753C52.2564 21.3362 51.5008 20.6068 50.9439 19.6871C50.3872 18.7674 50.1088 17.7368 50.1088 16.5951C50.1088 15.4535 50.3872 14.4308 50.9439 13.5269C51.5008 12.6231 52.2564 11.9096 53.2109 11.3864C54.1654 10.8472 55.2473 10.5776 56.4563 10.5776C57.6653 10.5776 58.7471 10.8393 59.7016 11.3625C60.6561 11.8858 61.4118 12.6073 61.9686 13.5269C62.5254 14.4308 62.8038 15.4535 62.8038 16.5951C62.8038 17.7368 62.5254 18.7674 61.9686 19.6871C61.4118 20.6068 60.6561 21.3362 59.7016 21.8753C58.7471 22.3985 57.6653 22.6601 56.4563 22.6601ZM56.4563 19.3541C56.9813 19.3541 57.4426 19.2431 57.8404 19.0211C58.2381 18.7833 58.5403 18.4583 58.7471 18.046C58.9698 17.6179 59.0812 17.1342 59.0812 16.5951C59.0812 16.056 58.9698 15.5882 58.7471 15.1919C58.5244 14.7796 58.2142 14.4625 57.8164 14.2405C57.4346 14.0026 56.9813 13.8837 56.4563 13.8837C55.9472 13.8837 55.4939 14.0026 55.0961 14.2405C54.6984 14.4625 54.3882 14.7796 54.1654 15.1919C53.9427 15.6041 53.8314 16.0798 53.8314 16.6189C53.8314 17.1422 53.9427 17.6179 54.1654 18.046C54.3882 18.4583 54.6984 18.7833 55.0961 19.0211C55.4939 19.2431 55.9472 19.3541 56.4563 19.3541Z" fill="#0A0A0A"></path><path fill-rule="evenodd" clip-rule="evenodd" d="M65.6954 26.9177C66.6658 27.3617 67.7874 27.5837 69.0601 27.5837C70.301 27.5837 71.4066 27.3379 72.377 26.8463C73.3475 26.3548 74.111 25.673 74.6679 24.8009C75.2246 23.9288 75.5034 22.8982 75.5034 21.7089V10.8395H71.9236V11.6161C71.6574 11.3927 71.355 11.2052 71.0169 11.0535C70.3964 10.7522 69.6884 10.6016 68.8931 10.6016C67.8272 10.6016 66.8806 10.8553 66.0534 11.3627C65.226 11.8542 64.5739 12.536 64.0966 13.4081C63.6193 14.2644 63.3807 15.2316 63.3807 16.3099C63.3807 17.3723 63.6193 18.3395 64.0966 19.2116C64.5739 20.0837 65.226 20.7734 66.0534 21.2808C66.8806 21.7882 67.8272 22.0419 68.8931 22.0419C69.6726 22.0419 70.3805 21.8913 71.0169 21.59C71.3251 21.4441 71.6035 21.2721 71.852 21.074V21.8041C71.852 22.6127 71.5896 23.2391 71.0646 23.6831C70.5555 24.1271 69.8476 24.349 68.9408 24.349C68.209 24.349 67.5806 24.2222 67.0556 23.9684C66.5465 23.7148 66.0851 23.3421 65.6715 22.8506L63.4284 25.0863C63.9852 25.8791 64.7409 26.4896 65.6954 26.9177ZM70.8975 18.4742C70.5316 18.6962 70.0942 18.8072 69.585 18.8072C69.076 18.8072 68.6305 18.6962 68.2487 18.4742C67.8828 18.2522 67.5965 17.951 67.3897 17.5704C67.1828 17.174 67.0795 16.7538 67.0795 16.3099C67.0795 15.8342 67.1828 15.4061 67.3897 15.0255C67.5965 14.645 67.8908 14.3437 68.2726 14.1217C68.6544 13.8997 69.0919 13.7887 69.585 13.7887C70.0942 13.7887 70.5316 13.8997 70.8975 14.1217C71.2793 14.3437 71.5656 14.645 71.7566 15.0255C71.9634 15.4061 72.0668 15.8342 72.0668 16.3099C72.0668 16.7855 71.9634 17.2136 71.7566 17.5942C71.5656 17.9589 71.2793 18.2522 70.8975 18.4742Z" fill="#0A0A0A"></path><path fill-rule="evenodd" clip-rule="evenodd" d="M83.1869 22.6601C81.9934 22.6601 80.9114 22.3985 79.9414 21.8753C78.9866 21.3362 78.2311 20.6068 77.6742 19.6871C77.1174 18.7674 76.839 17.7368 76.839 16.5951C76.839 15.4535 77.1174 14.4308 77.6742 13.5269C78.2311 12.6231 78.9866 11.9096 79.9414 11.3864C80.8956 10.8472 81.9776 10.5776 83.1869 10.5776C84.3953 10.5776 85.4774 10.8393 86.4315 11.3625C87.3864 11.8858 88.1419 12.6073 88.6988 13.5269C89.2556 14.4308 89.534 15.4535 89.534 16.5951C89.534 17.7368 89.2556 18.7674 88.6988 19.6871C88.1419 20.6068 87.3864 21.3362 86.4315 21.8753C85.4774 22.3985 84.3953 22.6601 83.1869 22.6601ZM83.1869 19.3541C83.7113 19.3541 84.1726 19.2431 84.5707 19.0211C84.968 18.7833 85.2705 18.4583 85.4774 18.046C85.7001 17.6179 85.8115 17.1342 85.8115 16.5951C85.8115 16.056 85.7001 15.5882 85.4774 15.1919C85.2547 14.7796 84.9447 14.4625 84.5466 14.2405C84.1651 14.0026 83.7113 13.8837 83.1869 13.8837C82.6774 13.8837 82.2237 14.0026 81.8264 14.2405C81.4283 14.4625 81.1183 14.7796 80.8956 15.1919C80.6728 15.6041 80.5615 16.0798 80.5615 16.6189C80.5615 17.1422 80.6728 17.6179 80.8956 18.046C81.1183 18.4583 81.4283 18.7833 81.8264 19.0211C82.2237 19.2431 82.6774 19.3541 83.1869 19.3541Z" fill="#0A0A0A"></path><path fill-rule="evenodd" clip-rule="evenodd" d="M103.301 22.6365C102.522 22.6365 101.805 22.4859 101.153 22.1846C100.81 22.0261 100.5 21.8368 100.223 21.6167V27.2745H96.6194V10.8395H100.27V11.6372C100.535 11.4213 100.829 11.2346 101.153 11.0773C101.805 10.7601 102.522 10.6016 103.301 10.6016C104.398 10.6016 105.369 10.8632 106.212 11.3865C107.071 11.9097 107.739 12.6233 108.217 13.5271C108.71 14.4309 108.956 15.4616 108.956 16.619C108.956 17.7766 108.71 18.8072 108.217 19.7111C107.739 20.6149 107.071 21.3284 106.212 21.8516C105.369 22.3749 104.398 22.6365 103.301 22.6365ZM102.633 19.3543C103.158 19.3543 103.611 19.2353 103.993 18.9975C104.391 18.7597 104.701 18.4346 104.924 18.0224C105.146 17.6101 105.258 17.1423 105.258 16.619C105.258 16.0799 105.146 15.6043 104.924 15.192C104.701 14.7797 104.391 14.4626 103.993 14.2406C103.611 14.0027 103.166 13.8839 102.657 13.8839C102.148 13.8839 101.694 14.0027 101.297 14.2406C100.915 14.4626 100.613 14.7797 100.39 15.192C100.167 15.6043 100.056 16.0799 100.056 16.619C100.056 17.1423 100.159 17.6101 100.366 18.0224C100.589 18.4346 100.899 18.7597 101.297 18.9975C101.694 19.2353 102.14 19.3543 102.633 19.3543Z" fill="#0A0A0A"></path><path d="M112.53 22.4223C113.198 22.5968 113.874 22.6839 114.558 22.6839C116.005 22.6839 117.151 22.351 117.994 21.685C118.853 21.0191 119.282 20.1232 119.282 18.9974C119.282 18.268 119.148 17.6813 118.877 17.2374C118.607 16.7775 118.257 16.4128 117.827 16.1433C117.397 15.8737 116.944 15.6596 116.467 15.501C115.99 15.3425 115.536 15.2077 115.107 15.0967C114.677 14.9857 114.327 14.8589 114.056 14.7162C113.786 14.5734 113.651 14.3832 113.651 14.1453C113.651 13.9233 113.755 13.7568 113.961 13.6458C114.168 13.519 114.478 13.4556 114.892 13.4556C115.321 13.4556 115.759 13.5428 116.204 13.7172C116.665 13.8916 117.079 14.193 117.445 14.6211L119.521 12.528C118.996 11.862 118.312 11.3625 117.469 11.0296C116.642 10.6808 115.735 10.5063 114.749 10.5063C113.81 10.5063 112.991 10.6649 112.291 10.982C111.591 11.2992 111.05 11.7352 110.668 12.2901C110.287 12.8292 110.095 13.4715 110.095 14.2167C110.095 14.9144 110.231 15.4932 110.501 15.953C110.771 16.3969 111.122 16.7458 111.551 16.9995C111.98 17.2532 112.434 17.4514 112.911 17.5941C113.388 17.7368 113.842 17.8716 114.272 17.9985C114.701 18.1095 115.051 18.2442 115.321 18.4028C115.608 18.5455 115.751 18.7596 115.751 19.0449C115.751 19.2669 115.631 19.4413 115.393 19.5682C115.17 19.695 114.844 19.7585 114.415 19.7585C113.794 19.7585 113.221 19.6475 112.697 19.4255C112.171 19.1877 111.718 18.8626 111.336 18.4503L109.26 20.5434C109.658 20.9715 110.135 21.3521 110.692 21.685C111.265 22.0021 111.877 22.2479 112.53 22.4223Z" fill="#0A0A0A"></path><path d="M125.94 22.6602C124.875 22.6602 123.928 22.4461 123.101 22.018C122.289 21.574 121.653 20.9715 121.192 20.2104C120.73 19.4335 120.5 18.5455 120.5 17.5465V10.8394H124.151V17.499C124.151 17.8954 124.214 18.2363 124.342 18.5217C124.485 18.8071 124.692 19.0291 124.962 19.1877C125.233 19.3462 125.559 19.4255 125.94 19.4255C126.481 19.4255 126.911 19.259 127.229 18.926C127.548 18.5772 127.706 18.1015 127.706 17.499V10.8394H131.357V17.5228C131.357 18.5376 131.127 19.4335 130.665 20.2104C130.204 20.9715 129.568 21.574 128.756 22.018C127.945 22.4461 127.007 22.6602 125.94 22.6602Z" fill="#0A0A0A"></path><path d="M136.823 10.8395H133.172V22.3987H136.823V15.6439C136.823 15.2475 136.903 14.9145 137.062 14.645C137.237 14.3754 137.468 14.1692 137.754 14.0266C138.041 13.868 138.367 13.7887 138.732 13.7887C139.258 13.7887 139.695 13.9552 140.045 14.2882C140.411 14.6053 140.594 15.0572 140.594 15.6439V22.3987H144.245V15.6439C144.245 15.2475 144.325 14.9145 144.484 14.645C144.659 14.3754 144.889 14.1692 145.176 14.0266C145.462 13.868 145.788 13.7887 146.154 13.7887C146.679 13.7887 147.116 13.9552 147.466 14.2882C147.832 14.6053 148.015 15.0572 148.015 15.6439V22.3987H151.667V15.2396C151.667 14.2724 151.46 13.4478 151.046 12.766C150.648 12.0683 150.099 11.5371 149.399 11.1725C148.715 10.7918 147.928 10.6016 147.037 10.6016C146.13 10.6016 145.311 10.7998 144.579 11.1962C144.104 11.4488 143.688 11.7747 143.332 12.174C143 11.7563 142.597 11.4146 142.121 11.1486C141.485 10.784 140.761 10.6016 139.95 10.6016C139.091 10.6016 138.319 10.784 137.635 11.1486C137.337 11.3003 137.067 11.4821 136.823 11.6938V10.8395Z" fill="#0A0A0A"></path></g><defs><clipPath id="clip0_8_424"><rect width="152" height="30" fill="white"></rect></clipPath></defs></svg>