<svg xmlns="http://www.w3.org/2000/svg" width="98" height="47" viewBox="0 0 98 47" fill="none"><path opacity="0.2" d="M5.03122 9.1781C4.39592 7.5635 4.67172 5.707 5.25692 4.1456C5.87262 2.5026 6.94472 0.8641 8.5471 0C8.6266 1.7314 8.0977 3.442 7.5198 4.9845C7.0001 6.3719 6.36242 7.85 5.30942 8.9974C5.14762 9.8668 5.02362 10.7338 4.93642 11.5968C5.28542 10.6851 5.85132 9.8541 6.55742 9.1859C7.4665 8.3255 8.8188 7.6616 10.0882 8.0542C9.7164 9.4574 8.8689 10.8025 7.8652 11.7461C7.0752 12.4888 6.03232 13.4405 4.80392 13.4779C4.75332 14.7479 4.78192 16.0063 4.88642 17.2476C5.05972 16.3392 5.43102 15.4838 5.96752 14.8468C6.70452 13.9715 7.7973 12.9021 9.1929 13.081C9.1167 14.5012 8.5502 15.9563 7.7613 17.0497C7.1344 17.9186 6.30682 19.026 5.13212 19.3121C5.32022 20.5318 5.58222 21.7313 5.91462 22.905C5.91782 22.0063 6.11632 21.1242 6.51012 20.4167C7.0651 19.419 7.9295 18.1748 9.3267 18.0775C9.5315 19.4708 9.254 20.9939 8.6942 22.2053C8.2468 23.1736 7.6503 24.4084 6.56302 24.9193C7.0196 26.1821 7.5599 27.4096 8.1794 28.5944C7.9619 27.5732 7.9706 26.4971 8.228 25.5289C8.5827 24.1941 9.4632 22.792 10.8768 22.3851C11.3765 23.8587 11.3076 25.5033 11.0173 27.0011C10.7784 28.2343 10.309 29.6827 9.2568 30.4838C9.9447 31.5939 10.7057 32.6593 11.5356 33.673C11.0897 32.6788 10.8681 31.5915 10.987 30.596C11.1602 29.1458 11.5677 27.5944 13.049 26.8212C13.8894 28.2712 14.0841 29.8979 14.1555 31.5046C14.2132 32.8035 14.0261 34.4056 13.124 35.4623C14.1163 36.494 15.187 37.4596 16.3306 38.35C15.5923 37.4029 15.0753 36.2915 14.9658 35.1924C14.8112 33.6395 14.8868 31.93 16.2649 30.7904C17.4435 32.0214 18.1468 33.8343 18.4915 35.4089C18.7963 36.8011 19.1145 38.4489 18.3888 39.819C19.8442 40.769 21.3979 41.606 23.0406 42.3148C21.8847 41.4911 20.9385 40.361 20.4877 39.1942C19.897 37.6647 19.5316 35.8422 20.6823 34.3104C22.224 35.2979 23.3571 36.9827 24.2498 38.5193C25.0158 39.8378 25.8087 41.6576 25.4153 43.2279C26.3248 43.5365 27.2578 43.8075 28.2131 44.0387L28.1563 44.2732C27.1974 44.0411 26.2608 43.7692 25.3476 43.4597C24.7078 45.3504 22.6119 45.975 20.9169 46.2508C18.5018 46.6437 15.6261 45.8824 13.5643 44.3488C14.6525 42.8109 16.8728 42.6549 18.547 42.5372L18.5688 42.5357C20.4029 42.4068 22.3866 42.579 24.231 43.0582C22.1003 42.2471 20.1066 41.2273 18.2682 40.0284L18.2411 40.0712C17.2337 41.7047 15.2111 41.7684 13.6235 41.6651C11.4692 41.5249 8.982 40.215 7.5425 38.4043C8.8965 37.2163 10.8964 37.5488 12.446 37.8064L12.4535 37.8076C14.183 38.0951 16.0729 38.7223 17.6593 39.688C17.5082 39.569 17.3603 39.4431 17.2166 39.3111C15.6742 38.2114 14.2514 36.9813 12.9603 35.6401C12.9453 35.6551 12.9301 35.67 12.9148 35.6848C11.6594 36.9477 9.831 36.617 8.4041 36.206C6.49462 35.656 4.51432 33.9967 3.56532 32.0918C5.03592 31.2678 6.79412 31.9468 8.1617 32.4839C9.6627 33.0734 11.2508 34.0164 12.4719 35.2185C12.346 35.0597 12.2259 34.8938 12.1124 34.7221C10.9774 33.4411 9.9564 32.0694 9.0588 30.6223L9.0138 30.6505C7.5936 31.567 5.98452 30.9033 4.70922 30.2506C2.98012 29.3657 1.59062 27.4209 0.990221 25.5083C2.52412 25.017 4.03962 25.9813 5.21772 26.745C6.50622 27.5802 7.8114 28.7714 8.7073 30.1375C8.6415 30.0029 8.5802 29.8653 8.5237 29.7251C7.6629 28.2233 6.93162 26.6467 6.33962 25.0112L6.30912 25.0216L6.30662 25.0225C5.01532 25.5134 3.57732 24.7502 2.63982 23.9132C1.33682 22.75 0.418421 20.9617 0.203121 19.2146C1.54942 19.0402 2.81782 20.0818 3.68502 20.9702C4.68322 21.9927 5.57912 23.2012 6.12992 24.5435C6.08972 24.3977 6.05522 24.2496 6.02622 24.1C5.52502 22.5631 5.14532 20.9781 4.89502 19.3577L4.87552 19.3601L4.86892 19.3612C3.50372 19.5891 2.24152 18.5512 1.48742 17.5439C0.429421 16.1304 -0.115979 14.1741 0.0207209 12.401C1.38062 12.4961 2.41612 13.7898 3.08762 14.8363C3.86482 16.0478 4.50932 17.4189 4.79162 18.8533C4.78302 18.7392 4.77792 18.6244 4.77612 18.5093C4.56882 16.8601 4.49492 15.1771 4.56252 13.4733L4.55862 13.4731C3.17062 13.4231 2.14482 12.1344 1.61522 10.9913C0.857421 9.3555 0.735421 7.2878 1.24122 5.5452C2.56412 5.9165 3.30162 7.434 3.73692 8.6021C4.23882 9.9489 4.58912 11.4178 4.59192 12.8782C4.66412 11.653 4.80952 10.4181 5.03122 9.1781Z" fill="white"></path><path d="M32.3683 6.1554V12.0052C32.3683 14.5781 30.0381 15.816 26.5064 15.816C23.2053 15.816 20.8387 14.5903 20.8387 11.7018V6.1554H24.1277V11.7018C24.1277 12.7334 25.0136 13.3766 26.6399 13.3766C28.1934 13.3766 29.1158 12.7091 29.1158 11.7139V6.1554H32.3683Z" fill="white"></path><path d="M43.3223 13.146V15.6825H34.2321V6.1554H37.5211V13.146H43.3223Z" fill="white"></path><path d="M53.0968 8.5463V6.1554H41.7249V8.5463H45.7421V15.6825H49.0675V8.5463H53.0968Z" fill="white"></path><path fill-rule="evenodd" clip-rule="evenodd" d="M64.7631 7.1264C65.2001 7.5754 65.407 8.1944 65.407 9.05599C65.407 9.7964 65.225 10.4275 64.921 10.8522C64.581 11.3134 64.059 11.7018 63.416 11.7989L66.293 15.6825H62.6761L60.309 12.3207H57.3602V15.6825H54.1198V6.1554H61.7051C63.2101 6.1554 64.1931 6.5195 64.7631 7.1264ZM62.142 9.85709C62.227 9.71139 62.251 9.5172 62.251 9.3595C62.251 9.1774 62.227 8.9832 62.142 8.8619C61.972 8.5463 61.6321 8.4614 61.1221 8.4614H57.3723V10.1969H61.183C61.705 10.1969 62.021 10.0998 62.142 9.85709Z" fill="white"></path><path fill-rule="evenodd" clip-rule="evenodd" d="M70.671 13.9228H75.817L76.654 15.6825H80.162L75.356 6.1554H71.436L66.351 15.6825H69.785L70.671 13.9228ZM74.785 11.7867H71.739L72.941 9.493L73.305 8.61909L73.645 9.48079L74.785 11.7867Z" fill="white"></path><path fill-rule="evenodd" clip-rule="evenodd" d="M64.416 17.4768C62.38 17.4768 61.309 18.4418 61.309 19.8598C61.309 21.4603 62.433 22.2722 64.416 22.2722C66.599 22.2722 67.517 21.3308 67.517 19.8598C67.517 18.3653 66.481 17.4768 64.416 17.4768ZM64.416 21.0896C63.257 21.0896 62.921 20.613 62.921 19.8775C62.921 19.1538 63.286 18.6772 64.41 18.6772C65.64 18.6772 65.916 19.2126 65.916 19.8775C65.916 20.5836 65.581 21.0896 64.416 21.0896Z" fill="white"></path><path d="M58.2913 22.2016V19.4656H55.2199V20.46H56.8615C56.8498 20.5365 56.7909 20.6836 56.7144 20.7718C56.5438 20.9719 56.0907 21.1484 55.5023 21.1484C54.8904 21.1484 54.4962 20.9895 54.2844 20.7424C54.1432 20.56 54.0608 20.3011 54.0608 19.9128C54.0608 19.5068 54.1432 19.2303 54.302 19.0479C54.5315 18.789 54.9198 18.6772 55.4906 18.6772C56.0025 18.6772 56.3555 18.7948 56.5203 18.9419C56.6262 19.0302 56.7085 19.1538 56.7262 19.2361H58.2501C58.2443 19.089 58.1972 18.8537 58.1148 18.6831C57.75 17.9417 56.9027 17.5004 55.4612 17.5004C54.2079 17.5004 53.3665 17.8828 52.9017 18.4595C52.5957 18.8537 52.4545 19.3479 52.4545 19.901C52.4545 20.513 52.6192 21.0366 52.8899 21.3838C53.3488 21.9781 54.1667 22.2722 55.1493 22.2722C56.0143 22.2722 56.6085 22.0663 56.9851 21.7545L57.0263 22.2016H58.2913Z" fill="white"></path><path d="M42.2632 19.4068C43.4576 19.5362 43.9695 19.9599 43.9695 20.766C43.9695 21.7427 43.0163 22.2722 41.1393 22.2722C39.3918 22.2722 38.6387 21.778 38.3503 21.1308C38.2856 20.9778 38.2562 20.7895 38.2385 20.6718H39.9331C39.9449 20.7424 39.9861 20.8483 40.0449 20.9189C40.1861 21.0896 40.5803 21.1896 41.2511 21.1896C42.1161 21.1896 42.322 21.066 42.322 20.8366C42.322 20.5894 42.1102 20.5365 41.3276 20.4541C41.0158 20.4247 40.5215 20.3776 40.3156 20.36C38.8211 20.2246 38.268 19.7598 38.268 18.9655C38.268 18.1417 39.2447 17.5122 41.0275 17.5122C42.6103 17.5122 43.3458 17.9829 43.6518 18.5713C43.7459 18.7478 43.8047 18.9478 43.8224 19.089H42.1278C42.1219 19.0243 42.0984 18.9596 42.0337 18.8772C41.9042 18.7066 41.5747 18.5948 40.9863 18.5948C40.1567 18.5948 39.939 18.6948 39.939 18.9066C39.939 19.142 40.2156 19.195 41.1393 19.295C41.4982 19.3244 42.069 19.3832 42.2632 19.4068Z" fill="white"></path><path fill-rule="evenodd" clip-rule="evenodd" d="M25.3707 17.977C25.6825 18.2241 25.859 18.6419 25.859 19.2479C25.859 19.7422 25.7355 20.1128 25.5001 20.3717C25.1824 20.7365 24.6587 20.9013 23.9762 20.9072C23.7643 20.9131 21.9521 20.9072 21.9521 20.9072V22.2016H20.3693V17.5828H23.9526C24.5881 17.5828 25.0706 17.7122 25.3707 17.977ZM24.1998 19.6068C24.2468 19.5245 24.2704 19.4185 24.2704 19.2714C24.2704 19.1185 24.2409 18.989 24.188 18.9184C24.088 18.7713 23.8997 18.7007 23.5937 18.7007H21.9403V19.8304H23.5819C23.9114 19.8304 24.1056 19.7539 24.1998 19.6068Z" fill="white"></path><path fill-rule="evenodd" clip-rule="evenodd" d="M31.649 18.0535C31.8609 18.2712 31.9609 18.5713 31.9609 18.989C31.9609 19.3479 31.8726 19.6539 31.7255 19.8598C31.5608 20.0834 31.3078 20.2717 30.9959 20.3188L32.3904 22.2016H30.637L29.4896 20.5718H28.0598V22.2016H26.4888V17.5828H30.1663C30.8959 17.5828 31.3725 17.7593 31.649 18.0535ZM30.3781 19.3774C30.4193 19.3068 30.431 19.2126 30.431 19.1361C30.431 19.0479 30.4193 18.9537 30.3781 18.8949C30.2957 18.7419 30.131 18.7007 29.8839 18.7007H28.0657V19.5421H29.9133C30.1663 19.5421 30.3193 19.495 30.3781 19.3774Z" fill="white"></path><path d="M37.7616 22.2016V21.0543H34.449V20.4541H37.6263V19.3303H34.449V18.736H37.7204V17.5828H32.8956V22.2016H37.7616Z" fill="white"></path><path d="M49.6952 18.7419V17.5828H44.182V18.7419H46.1295V22.2016H47.7417V18.7419H49.6952Z" fill="white"></path><path d="M51.8151 17.5828V22.2016H50.197V17.5828H51.8151Z" fill="white"></path><path d="M60.67 17.5828V22.2016H59.0516V17.5828H60.67Z" fill="white"></path><path d="M73.76 17.5828V20.4188C73.76 21.6662 72.63 22.2664 70.918 22.2664C69.318 22.2664 68.17 21.6721 68.17 20.2717V17.5828H69.765V20.2717C69.765 20.7718 70.194 21.0837 70.983 21.0837C71.736 21.0837 72.183 20.7601 72.183 20.2776V17.5828H73.76Z" fill="white"></path><path d="M80.112 20.766C80.112 19.9599 79.6 19.5362 78.406 19.4068C78.211 19.3832 77.641 19.3244 77.282 19.295C76.358 19.195 76.081 19.142 76.081 18.9066C76.081 18.6948 76.299 18.5948 77.129 18.5948C77.717 18.5948 78.047 18.7066 78.176 18.8772C78.241 18.9596 78.264 19.0243 78.27 19.089H79.965C79.947 18.9478 79.888 18.7478 79.794 18.5713C79.488 17.9829 78.753 17.5122 77.17 17.5122C75.387 17.5122 74.41 18.1417 74.41 18.9655C74.41 19.7598 74.964 20.2246 76.458 20.36L76.554 20.3685L76.714 20.3831L77.47 20.4541C78.253 20.5365 78.464 20.5894 78.464 20.8366C78.464 21.066 78.259 21.1896 77.394 21.1896C76.723 21.1896 76.329 21.0896 76.187 20.9189C76.129 20.8483 76.087 20.7424 76.076 20.6718H74.381C74.399 20.7895 74.428 20.9778 74.493 21.1308C74.781 21.778 75.534 22.2722 77.282 22.2722C79.159 22.2722 80.112 21.7427 80.112 20.766Z" fill="white"></path><path fill-rule="evenodd" clip-rule="evenodd" d="M38.9666 23.9701C37.6435 23.9701 36.9475 24.5973 36.9475 25.5189C36.9475 26.559 37.6779 27.0867 38.9666 27.0867C40.3854 27.0867 40.9819 26.4749 40.9819 25.5189C40.9819 24.5476 40.3089 23.9701 38.9666 23.9701ZM38.9666 26.3181C38.2133 26.3181 37.9953 26.0083 37.9953 25.5303C37.9953 25.06 38.2324 24.7502 38.9628 24.7502C39.762 24.7502 39.9418 25.0982 39.9418 25.5303C39.9418 25.9892 39.7238 26.3181 38.9666 26.3181Z" fill="white"></path><path d="M31.6085 26.1077C31.6085 25.5838 31.2758 25.3084 30.4995 25.2243C30.3733 25.209 30.0024 25.1708 29.7691 25.1517C29.1687 25.0866 28.989 25.0522 28.989 24.8993C28.989 24.7616 29.1305 24.6966 29.6697 24.6966C30.0521 24.6966 30.2662 24.7692 30.3504 24.8801C30.3924 24.9337 30.4077 24.9757 30.4116 25.0178H31.5129C31.5014 24.926 31.4632 24.796 31.402 24.6813C31.2031 24.2989 30.7251 23.993 29.6964 23.993C28.5378 23.993 27.903 24.4021 27.903 24.9375C27.903 25.4538 28.2624 25.7559 29.2337 25.8438C29.3676 25.8553 29.6888 25.8859 29.8915 25.905C30.4001 25.9585 30.5377 25.993 30.5377 26.1536C30.5377 26.3027 30.4039 26.383 29.8418 26.383C29.4058 26.383 29.1496 26.318 29.0578 26.2071C29.0196 26.1612 28.9928 26.0924 28.9852 26.0465H27.8838C27.8953 26.123 27.9144 26.2453 27.9565 26.3448C28.1439 26.7654 28.6334 27.0866 29.7691 27.0866C30.989 27.0866 31.6085 26.7425 31.6085 26.1077Z" fill="white"></path><path fill-rule="evenodd" clip-rule="evenodd" d="M23.9731 26.1919C23.9731 26.3984 23.9157 26.6011 23.801 26.7349C23.6251 26.9491 23.2962 27.0408 22.8718 27.0408H20.2064V24.0389H22.7991C23.2121 24.0389 23.476 24.1384 23.6213 24.2875C23.7513 24.4175 23.8087 24.5896 23.8087 24.7846C23.8087 24.9797 23.7628 25.1403 23.6634 25.2588C23.583 25.3583 23.4454 25.4347 23.3001 25.4539C23.5142 25.4806 23.7169 25.5877 23.8316 25.7368C23.9272 25.8477 23.9731 26.016 23.9731 26.1919ZM22.6844 25.1403C22.7226 25.0982 22.7456 25.037 22.7456 24.9644C22.7456 24.8917 22.7226 24.8305 22.6729 24.7885C22.6194 24.7387 22.5199 24.7196 22.3746 24.7196H21.2083V25.2091H22.4014C22.5314 25.2091 22.6309 25.19 22.6844 25.1403ZM22.5123 26.3602C22.692 26.3602 22.7991 26.3372 22.8603 26.2799C22.8985 26.2416 22.9138 26.1843 22.9138 26.1116C22.9138 26.0351 22.8947 25.9778 22.8488 25.9319C22.7915 25.8822 22.692 25.8592 22.5238 25.8592H21.2083V26.3602H22.5123Z" fill="white"></path><path d="M27.5739 26.2952V27.0408H24.4114V24.0389H27.5471V24.7885H25.4209V25.1747H27.4859V25.9051H25.4209V26.2952H27.5739Z" fill="white"></path><path d="M35.3297 24.0389V24.7923H34.0601V27.0408H33.0124V24.7923H31.7466V24.0389H35.3297Z" fill="white"></path><path d="M44.4812 24.0389V24.7999H42.443V25.2244H44.3856V25.9778H42.443V27.0408H41.4143V24.0389H44.4812Z" fill="white"></path><path d="M49.6624 24.7923V24.0389H46.0793V24.7923H47.3451V27.0408H48.3929V24.7923H49.6624Z" fill="white"></path><path d="M53.5719 24.0389V27.0408H52.547V25.951H51.0097V27.0408H49.9849V24.0389H51.0097V25.1326H52.547V24.0389H53.5719Z" fill="white"></path><path d="M57.3412 27.0408V26.2952H55.1882V25.9051H57.2532V25.1747H55.1882V24.7885H57.3144V24.0389H54.1787V27.0408H57.3412Z" fill="white"></path><path d="M63.681 24.0389H64.671L63.574 27.0408H62.45C62.45 27.0408 61.849 25.2474 61.845 25.1976C61.842 25.2474 61.237 27.0408 61.237 27.0408H60.117L58.9927 24.0389H60.105C60.105 24.0389 60.756 25.928 60.756 25.9739C60.756 25.928 61.356 24.0389 61.356 24.0389H62.431C62.431 24.0389 63.035 25.928 63.035 25.9739C63.035 25.928 63.681 24.0389 63.681 24.0389Z" fill="white"></path><path fill-rule="evenodd" clip-rule="evenodd" d="M66.635 23.9701C65.312 23.9701 64.616 24.5973 64.616 25.5189C64.616 26.559 65.346 27.0867 66.635 27.0867C68.054 27.0867 68.65 26.4749 68.65 25.5189C68.65 24.5476 67.977 23.9701 66.635 23.9701ZM66.635 26.3181C65.882 26.3181 65.664 26.0083 65.664 25.5303C65.664 25.06 65.901 24.7502 66.631 24.7502C67.431 24.7502 67.61 25.0982 67.61 25.5303C67.61 25.9892 67.392 26.3181 66.635 26.3181Z" fill="white"></path><path fill-rule="evenodd" clip-rule="evenodd" d="M72.437 24.3449C72.574 24.4864 72.639 24.6814 72.639 24.9529C72.639 25.1862 72.582 25.385 72.486 25.5189C72.379 25.6642 72.215 25.7866 72.012 25.8171L72.918 27.0408H71.779L71.033 25.9816H70.104V27.0408H69.083V24.0389H71.473C71.947 24.0389 72.257 24.1537 72.437 24.3449ZM71.611 25.2053C71.637 25.1594 71.645 25.0982 71.645 25.0485C71.645 24.9911 71.637 24.93 71.611 24.8917C71.557 24.7923 71.45 24.7655 71.289 24.7655H70.108V25.3124H71.308C71.473 25.3124 71.572 25.2818 71.611 25.2053Z" fill="white"></path><path d="M76.1109 27.0408V26.2416H74.2829V24.0389H73.2469V27.0408H76.1109Z" fill="white"></path><path fill-rule="evenodd" clip-rule="evenodd" d="M80.1659 25.4844C80.1659 25.951 80.1199 26.2034 79.9829 26.4405C79.7759 26.819 79.3669 27.0408 78.6439 27.0408H76.5179V24.0389H78.6209C79.3399 24.0389 79.7649 24.2416 79.9749 24.5896C80.1239 24.8229 80.1659 25.0714 80.1659 25.4844ZM78.4489 26.3028C78.7739 26.3028 78.9579 26.2263 79.0689 26.0581C79.1379 25.9548 79.1569 25.7139 79.1569 25.5036C79.1529 25.3124 79.1299 25.1097 79.0689 25.0179C78.9499 24.8382 78.7709 24.7732 78.4569 24.7732H77.5429V26.3028H78.4489Z" fill="white"></path><path d="M39.1449 41.6405H37.5603C37.5603 41.6405 36.5263 44.663 36.5263 44.7364C36.5263 44.663 35.5596 41.6405 35.5596 41.6405H33.8403C33.8403 41.6405 32.8797 44.663 32.8797 44.7364C32.8797 44.663 31.8396 41.6405 31.8396 41.6405H30.0591L31.8579 46.4434H33.6506C33.6506 46.4434 34.6173 43.5739 34.6234 43.4944C34.6296 43.5739 35.5901 46.4434 35.5901 46.4434H37.3889L39.1449 41.6405Z" fill="white"></path><path d="M41.3133 46.4434V41.6405H39.6307V46.4434H41.3133Z" fill="white"></path><path d="M47.8579 41.6405V46.4434H46.2181L43.8381 43.7697V46.4434H42.2596V41.6405H43.9849L46.2915 44.2531V41.6405H47.8579Z" fill="white"></path><path d="M54.4124 46.4434V41.6405H52.8461V44.2531L50.5395 41.6405H48.8141V46.4434H50.3926V43.7697L52.7727 46.4434H54.4124Z" fill="white"></path><path d="M60.4291 45.2503V46.4434H55.3687V41.6405H60.3861V42.8397H56.984V43.4577H60.2881V44.6263H56.984V45.2503H60.4291Z" fill="white"></path><path fill-rule="evenodd" clip-rule="evenodd" d="M66.8961 43.1028C66.8961 42.6684 66.7921 42.3564 66.5721 42.13C66.2841 41.8241 65.7891 41.6405 65.0301 41.6405H61.2061V46.4434H62.84V44.7486H64.3271L65.5201 46.4434H67.3431L65.8931 44.4856C66.2171 44.4366 66.4801 44.2408 66.6521 44.0083C66.8041 43.7942 66.8961 43.476 66.8961 43.1028ZM65.3051 43.2558C65.3051 43.3353 65.2931 43.4332 65.2501 43.5066C65.1891 43.629 65.0301 43.6779 64.7671 43.6779H62.8461V42.803H64.7361C64.9931 42.803 65.1651 42.8458 65.2501 43.0049C65.2931 43.0661 65.3051 43.164 65.3051 43.2558Z" fill="white"></path><path d="M34.2596 33.167L33.5961 31.1248L32.9325 33.167H30.7852L32.5224 34.4291L31.8589 36.4713L33.5961 35.2092L35.3332 36.4713L34.6697 34.4291L36.4069 33.167H34.2596Z" fill="white"></path><path d="M41.2565 31.1234L41.9336 33.1656H44.1247L42.3521 34.4278L43.0292 36.4699L41.2565 35.2078L39.4839 36.4699L40.161 34.4278L38.3883 33.1656H40.5794L41.2565 31.1234Z" fill="white"></path><path d="M49.533 33.1656L48.856 31.1234L48.1789 33.1656H45.9877L47.7604 34.4278L47.0833 36.4699L48.856 35.2078L50.6286 36.4699L49.9515 34.4278L51.7242 33.1656H49.533Z" fill="white"></path><path d="M56.4558 31.1234L57.1329 33.1656H59.324L57.5514 34.4278L58.2285 36.4699L56.4558 35.2078L54.6832 36.4699L55.3603 34.4278L53.5876 33.1656H55.7788L56.4558 31.1234Z" fill="white"></path><path d="M64.7801 33.1656L64.1161 31.1234L63.4521 33.1656H61.3051L63.0421 34.4278L62.3791 36.4699L64.1161 35.2078L65.8531 36.4699L65.1901 34.4278L66.9271 33.1656H64.7801Z" fill="white"></path><path opacity="0.2" d="M92.6381 9.22237C93.2731 7.60787 92.9971 5.75117 92.4121 4.18977C91.7961 2.54687 90.7241 0.908167 89.1221 0.0440674C89.0421 1.77557 89.5711 3.48607 90.1491 5.02857C90.6691 6.41587 91.3061 7.89387 92.3591 9.04117C92.5211 9.91037 92.6451 10.7772 92.7321 11.64C92.3831 10.7287 91.8181 9.89807 91.1121 9.23007C90.2031 8.36957 88.8501 7.70577 87.5811 8.09837C87.9531 9.50147 88.8001 10.8467 89.8041 11.7903C90.5941 12.533 91.6371 13.4846 92.8651 13.5221C92.9161 14.7922 92.8871 16.0507 92.7821 17.2921C92.6091 16.3837 92.2381 15.5283 91.701 14.8913C90.9641 14.0159 89.8711 12.9466 88.4761 13.1255C88.5521 14.5457 89.1191 16.0008 89.9081 17.0942C90.534 17.9631 91.3621 19.0706 92.5371 19.3567C92.3491 20.5762 92.0871 21.7755 91.7541 22.9491C91.7511 22.0505 91.553 21.1684 91.159 20.4609C90.604 19.4633 89.7391 18.219 88.3421 18.1217C88.1371 19.515 88.4151 21.0381 88.9751 22.2495C89.4221 23.2178 90.0191 24.4526 91.1061 24.9635C90.6491 26.2265 90.1091 27.4543 89.4891 28.6392C89.7071 27.6178 89.6981 26.5415 89.4411 25.573C89.0861 24.2382 88.2061 22.836 86.7921 22.4292C86.2921 23.903 86.3611 25.5474 86.6521 27.0452C86.8911 28.2785 87.3601 29.7269 88.4121 30.528C87.7241 31.6387 86.9631 32.7046 86.1321 33.7188C86.5791 32.7242 86.8001 31.6363 86.6811 30.6404C86.5081 29.19 86.1011 27.6387 84.6201 26.8657C83.7791 28.3157 83.5841 29.9424 83.5131 31.5491C83.4551 32.8481 83.6421 34.4503 84.5451 35.5071C83.5521 36.5385 82.482 37.5038 81.3391 38.394C82.0771 37.4469 82.5941 36.3356 82.7031 35.2366C82.8581 33.6837 82.7831 31.9743 81.4041 30.8346C80.2261 32.0656 79.5221 33.8785 79.1781 35.4531C78.8731 36.8452 78.5551 38.4931 79.2801 39.8632C77.8251 40.8134 76.2711 41.6505 74.6281 42.3595C75.7841 41.5357 76.7301 40.4054 77.1811 39.2384C77.7721 37.709 78.1371 35.8864 76.9871 34.3546C75.4451 35.3421 74.3121 37.0268 73.4191 38.5635C72.6531 39.8821 71.8601 41.702 72.2541 43.2723C71.3441 43.5809 70.4111 43.8519 69.4561 44.0831L69.5131 44.3176C70.4711 44.0855 71.4081 43.8136 72.3211 43.5041C72.9611 45.3947 75.0571 46.0195 76.7521 46.2952C79.1671 46.6881 82.0431 45.9269 84.1051 44.3932C83.0161 42.8553 80.7961 42.6993 79.1221 42.5816L79.1001 42.5801C77.2661 42.4512 75.2821 42.6234 73.4381 43.1027C75.5681 42.2916 77.5621 41.2716 79.4011 40.0726L79.4261 40.1126C80.4331 41.7488 82.4571 41.8128 84.0451 41.7094C86.2001 41.5692 88.6871 40.2593 90.1261 38.4486C88.7721 37.2608 86.7731 37.5931 85.2231 37.8506L85.215 37.852C83.486 38.1394 81.5971 38.7663 80.0111 39.7317C80.1621 39.6128 80.3091 39.4871 80.4531 39.3552C81.9951 38.2557 83.4171 37.0258 84.7081 35.6848C84.7261 35.7027 84.7441 35.7203 84.7621 35.7378C86.0181 36.9909 87.8411 36.6603 89.2651 36.2502C91.1751 35.7002 93.1551 34.0409 94.104 32.136C92.633 31.312 90.8751 31.9909 89.5081 32.5281C88.0051 33.1181 86.4161 34.0622 85.1941 35.2659C85.3201 35.1069 85.4411 34.9407 85.5551 34.7687C86.6901 33.487 87.7121 32.1145 88.6101 30.6665L88.6491 30.6906L88.659 30.6969C90.0781 31.6101 91.6861 30.947 92.9601 30.2948C94.6891 29.4099 96.0791 27.4651 96.6791 25.5525C95.1451 25.0612 93.6301 26.0255 92.4521 26.7892C91.1621 27.6249 89.8561 28.8169 88.9601 30.184C89.0261 30.0491 89.0881 29.9111 89.1451 29.7706C90.0061 28.2683 90.7371 26.6913 91.3291 25.0554L91.3601 25.0658L91.3651 25.0678C92.6561 25.5565 94.0931 24.7938 95.0301 23.9574C96.3321 22.7942 97.2511 21.0059 97.4661 19.2588C96.1201 19.0844 94.8511 20.126 93.9841 21.0143C92.9861 22.0375 92.0891 23.2468 91.5381 24.5902C91.5791 24.4436 91.6141 24.2947 91.6431 24.1442C92.1441 22.6074 92.5241 21.0225 92.7741 19.4023L92.812 19.4073C94.1721 19.6275 95.4301 18.5926 96.1821 17.5881C97.2401 16.1746 97.7851 14.2183 97.6481 12.4451C96.2891 12.5403 95.2531 13.8339 94.5821 14.8805C93.8041 16.0926 93.1591 17.4645 92.8771 18.8998C92.8861 18.785 92.8911 18.6696 92.8931 18.5538C93.1001 16.9045 93.1741 15.2214 93.1061 13.5176C94.4951 13.4689 95.5241 12.1793 96.0541 11.0357C96.8111 9.39997 96.9331 7.33217 96.4281 5.58967C95.1051 5.96097 94.3671 7.47827 93.9321 8.64637C93.4301 9.99317 93.0801 11.4623 93.0771 12.9227C93.0051 11.6975 92.8591 10.4625 92.6381 9.22237Z" fill="white"></path></svg>