<svg xmlns="http://www.w3.org/2000/svg" width="176" height="30" viewBox="0 0 176 30" fill="none"><g clip-path="url(#clip0_8_491)"><path d="M28.7061 24.4144L28.7083 24.4169L23.9636 28.5708C22.9908 29.4435 21.7329 29.938 20.4216 29.9623L20.4106 29.9625H4.15083C3.54893 29.9878 2.94914 29.8754 2.39787 29.6339C1.83687 29.3883 1.34125 29.0158 0.950949 28.5458C0.560624 28.076 0.286578 27.5222 0.150379 26.9287C0.0167129 26.3453 0.0196136 25.7386 0.159494 25.1564L1.41135 18.7964C1.52271 18.2428 1.81703 17.7416 2.24782 17.3728L2.30921 17.3203C2.17595 17.1195 2.07847 16.8972 2.02132 16.6629C1.9455 16.3521 1.94285 16.0288 2.01268 15.7178L3.26703 9.34596L3.26896 9.33689C3.51308 8.19352 4.12795 7.16124 5.01948 6.39809L9.3636 2.59492C9.5646 2.36584 9.78526 2.15244 10.024 1.95736C10.9749 1.18016 12.1582 0.737585 13.3891 0.698407L13.4095 0.697754L29.689 0.744251C30.2903 0.719311 30.8893 0.831792 31.44 1.07291C32.0011 1.3186 32.4967 1.69115 32.8869 2.161C33.2772 2.63079 33.5513 3.18467 33.6875 3.77841C33.8214 4.36197 33.8182 4.96815 33.6786 5.55006L30.569 21.3883L30.5646 21.4075C30.2915 22.5844 29.6386 23.6401 28.7061 24.4144Z" fill="#0A0A0A"></path><path d="M29.4349 2.20767C29.8626 2.18614 30.2894 2.26479 30.6812 2.43721C31.073 2.60962 31.419 2.87103 31.6915 3.20066C31.9639 3.53029 32.1553 3.91891 32.2505 4.33553C32.3455 4.75214 32.3416 5.1852 32.239 5.60003L29.1428 21.4483C28.9253 22.3899 28.4017 23.2334 27.6536 23.847C26.9054 24.4606 25.9747 24.81 25.0067 24.8406H8.80719C8.37943 24.8619 7.95256 24.7833 7.56059 24.6109C7.16863 24.4384 6.82243 24.1771 6.54955 23.8477C6.27667 23.5182 6.08464 23.1298 5.98875 22.7133C5.89288 22.2967 5.8958 21.8635 5.99727 21.4483L7.24745 15.0367C7.32075 14.7238 7.49569 14.4438 7.74503 14.2404C7.99436 14.0369 8.30412 13.9214 8.62613 13.9118C11.5821 14.0167 14.4213 14.2382 17.0677 15.1882L17.6518 18.8545C17.6661 18.9431 17.7129 19.0231 17.7831 19.0791C17.8533 19.1351 17.9418 19.1632 18.0316 19.1577C18.1346 19.1559 18.2354 19.127 18.3237 19.0737C18.4119 19.0205 18.4845 18.9448 18.534 18.8545L20.5319 15.1882L24.5277 13.9293C24.6244 13.8984 24.7114 13.843 24.78 13.7684C24.8486 13.6937 24.8966 13.6026 24.9191 13.5039C24.942 13.4165 24.9312 13.3238 24.889 13.244C24.8469 13.1641 24.7764 13.103 24.6913 13.0725L21.1861 11.8192L20.602 8.1531C20.5877 8.06405 20.5411 7.98334 20.4711 7.92641C20.4011 7.86942 20.3125 7.84015 20.2223 7.84417C20.1186 7.84651 20.0174 7.87637 19.9291 7.93066C19.8408 7.98495 19.7685 8.06171 19.7198 8.1531L17.722 11.8192C14.8248 12.6484 11.8271 13.0761 8.81305 13.09C8.66837 13.1023 8.52287 13.08 8.38845 13.0252C8.25403 12.9705 8.13457 12.8848 8.0399 12.7749C7.94523 12.6651 7.87805 12.5343 7.84388 12.3936C7.80971 12.2528 7.80949 12.1059 7.84329 11.9649L9.09348 5.55336C9.30974 4.61218 9.83224 3.76895 10.5794 3.15527C11.3266 2.54158 12.2564 2.19208 13.2237 2.16113L29.4349 2.20767Z" fill="#86EE02"></path><path d="M129.086 23.3827C126.082 23.3827 123.951 22.1605 123.279 19.8546L127.207 18.0791C127.486 19.0245 128.3 19.4626 129.778 19.4626C130.928 19.4626 131.858 19.1167 131.988 18.3788C132.151 17.4565 131.237 17.3181 129.842 17.1106C127.533 16.7647 124.219 15.8654 124.875 12.1529C125.38 9.29363 128.372 7.10303 131.892 7.10303C134.661 7.10303 136.792 8.32515 137.464 10.631L133.536 12.4066C133.225 11.6456 132.49 11.023 131.011 11.023C129.979 11.023 129.359 11.3459 129.245 11.9915C129.09 12.8677 130.074 13.1445 131.581 13.375C133.867 13.721 136.998 14.5972 136.338 18.3327C135.832 21.192 132.606 23.3827 129.086 23.3827Z" fill="#0A0A0A"></path><path d="M152.951 23.0137H157.363L160.832 12.0146L161.71 21.1229C161.83 22.4372 162.889 23.0829 164.179 23.0829C165.494 23.0829 166.715 22.4142 167.358 21.0306L171.458 12.0376L170.786 23.0137H175.174L175.595 10.0084C175.648 8.11763 174.56 7.10303 172.706 7.10303C171.016 7.10303 169.451 7.86395 168.699 9.59342L165.117 17.7793L164.417 9.5242C164.277 7.79481 163.014 7.10303 161.371 7.10303C159.471 7.10303 157.981 8.09459 157.351 9.93929L152.951 23.0137Z" fill="#0A0A0A"></path><path d="M138.234 15.9805C137.419 20.5923 139.172 23.2902 144.147 23.2902C149.098 23.2902 151.851 20.5923 152.666 15.9805L154.174 7.44873H149.832L148.345 15.8652C147.921 18.2634 146.807 19.2549 144.86 19.2549C142.935 19.2549 142.172 18.2634 142.596 15.8652L144.083 7.44873H139.742L138.234 15.9805Z" fill="#0A0A0A"></path><path fill-rule="evenodd" clip-rule="evenodd" d="M108.695 23.0135L113.041 22.9904L113.709 19.2088H115.68C120.28 19.2088 123.276 16.9951 123.936 13.2596C124.576 9.63932 122.217 7.44873 117.524 7.44873H111.446L108.695 23.0135ZM115.094 11.3687H116.948C118.826 11.3687 119.693 12.0374 119.478 13.2596C119.245 14.574 118.204 15.2888 116.256 15.2888H114.402L115.094 11.3687Z" fill="#0A0A0A"></path><path d="M104.295 7.44873H108.637L105.886 23.0135H101.545L104.295 7.44873Z" fill="#0A0A0A"></path><path fill-rule="evenodd" clip-rule="evenodd" d="M84.5563 15.2427C83.7371 19.8775 86.6888 23.3594 91.476 23.3594C96.2632 23.3594 100.445 19.8775 101.265 15.2427C102.084 10.6079 99.132 7.12598 94.3448 7.12598C89.5576 7.12598 85.3754 10.6079 84.5563 15.2427ZM96.8059 15.2427C96.3981 17.5486 94.3947 19.3241 92.1888 19.3241C89.9829 19.3241 88.6072 17.5486 89.0149 15.2427C89.4227 12.9369 91.4254 11.1613 93.6313 11.1613C95.8371 11.1613 97.2136 12.9369 96.8059 15.2427Z" fill="#0A0A0A"></path><path d="M75.4791 23.3594C70.739 23.3594 67.7567 19.7853 68.5595 15.2427C69.3623 10.7001 73.5607 7.12598 78.3479 7.12598C81.1639 7.12598 83.6807 8.55561 84.37 11.1613L80.4841 13.0983C80.0345 11.9222 79.2814 11.1382 77.451 11.1382C75.2217 11.1382 73.4382 12.8676 73.0059 15.3119C72.5536 17.8714 73.766 19.5086 76.1596 19.5086C77.4268 19.5086 78.2452 19.3933 79.0313 18.7938L79.3951 16.6492L75.3331 14.8582H83.9102L83.7892 15.5886H83.7987L83.6645 16.3464L83.6565 16.3964L83.6557 16.3967L82.9833 20.2004C81.4374 22.0451 78.6705 23.3594 75.4791 23.3594Z" fill="#0A0A0A"></path><path fill-rule="evenodd" clip-rule="evenodd" d="M51.371 15.2427C50.552 19.8775 53.5035 23.3594 58.2907 23.3594C63.0779 23.3594 67.2602 19.8775 68.0793 15.2427C68.8983 10.6079 65.9467 7.12598 61.1595 7.12598C56.3723 7.12598 52.1901 10.6079 51.371 15.2427ZM63.6206 15.2427C63.2131 17.5486 61.2098 19.3241 59.0039 19.3241C56.798 19.3241 55.4222 17.5486 55.8297 15.2427C56.2372 12.9369 58.2406 11.1613 60.4465 11.1613C62.6523 11.1613 64.0281 12.9369 63.6206 15.2427Z" fill="#0A0A0A"></path><path d="M45.7497 7.44873L43.6918 19.0935H50.6848L49.9921 23.0135H42.4124C39.7372 23.0135 38.9022 21.6299 39.2894 19.4394L41.4083 7.44873H45.7497Z" fill="#0A0A0A"></path></g><defs><clipPath id="clip0_8_491"><rect width="176" height="30" fill="white"></rect></clipPath></defs></svg>