<svg xmlns="http://www.w3.org/2000/svg" width="152" height="24" viewBox="0 0 152 24" fill="none"><g clip-path="url(#clip0_28_371)"><path d="M21.2089 0.923418C21.7356 0.373432 22.4509 0.0644531 23.1958 0.0644531C26.5469 0.0644531 29.7051 0.0644548 32.8151 0.0644611C39.0704 0.0644743 42.2027 7.96173 37.7796 12.5804L28.145 22.641C27.7027 23.1029 26.9464 22.7758 26.9464 22.1226V13.2616L28.0598 12.0989C28.9444 11.1752 28.3179 9.59567 27.0669 9.59567H12.9039L21.2089 0.923418Z" fill="white"></path><path d="M18.6413 21.9338C18.1146 22.4838 17.3993 22.7928 16.6545 22.7928C13.3033 22.7928 10.1452 22.7928 7.03509 22.7928C0.779827 22.7927 -2.35251 14.8955 2.07062 10.2768L11.7053 0.216211C12.1475 -0.245662 12.9038 0.0814555 12.9038 0.73464L12.9039 9.5956L11.7904 10.7583C10.9058 11.6821 11.5323 13.2615 12.7834 13.2615L26.9464 13.2615L18.6413 21.9338Z" fill="white"></path><path d="M95.7264 7.67993V19.1055H99.0693V7.67993H95.7264Z" fill="white"></path><path d="M95.9592 5.77919C96.3543 6.17559 96.8371 6.37382 97.4086 6.37382C97.9796 6.37382 98.4595 6.17559 98.8472 5.77919C99.2423 5.38274 99.4398 4.90136 99.4398 4.33504C99.4398 3.75455 99.2423 3.26963 98.8472 2.88029C98.4595 2.48386 97.9796 2.28564 97.4086 2.28564C96.8371 2.28564 96.3543 2.48386 95.9592 2.88029C95.5641 3.26963 95.3666 3.75455 95.3666 4.33504C95.3666 4.90136 95.5641 5.38274 95.9592 5.77919Z" fill="white"></path><path fill-rule="evenodd" clip-rule="evenodd" d="M100.955 23.5653V7.67991H104.129V8.81608H104.171C104.37 8.61837 104.586 8.43786 104.817 8.27454C105.564 7.75066 106.424 7.48877 107.398 7.48877C108.251 7.48877 109.066 7.71174 109.842 8.15774C110.625 8.60368 111.259 9.26563 111.746 10.1434C112.232 11.0212 112.469 12.1149 112.455 13.4245C112.462 14.4156 112.324 15.2793 112.042 16.0155C111.76 16.7447 111.379 17.3499 110.9 17.8313C110.42 18.3127 109.884 18.6737 109.291 18.9144C108.699 19.1551 108.1 19.2754 107.493 19.2754C106.534 19.2754 105.674 19.0064 104.912 18.4684C104.72 18.3312 104.538 18.1825 104.367 18.0224H104.298V23.5653H100.955ZM106.71 16.4721C107.204 16.465 107.638 16.3341 108.012 16.0792C108.385 15.8244 108.678 15.4633 108.889 14.9961C109.101 14.5289 109.204 13.9838 109.196 13.3608C109.204 12.7237 109.098 12.1787 108.879 11.7256C108.667 11.2655 108.368 10.915 107.98 10.6743C107.592 10.4266 107.147 10.3062 106.647 10.3133C106.175 10.3062 105.751 10.4231 105.378 10.6637C105.004 10.9044 104.708 11.2548 104.489 11.7149C104.27 12.168 104.161 12.7167 104.161 13.3608C104.161 13.9838 104.27 14.5289 104.489 14.9961C104.714 15.4633 105.018 15.8244 105.399 16.0792C105.779 16.3341 106.217 16.465 106.71 16.4721Z" fill="white"></path><path d="M115.674 18.925C116.294 19.1586 116.943 19.2754 117.62 19.2754C118.396 19.2754 119.105 19.1233 119.746 18.8189C120.395 18.5145 120.913 18.0897 121.302 17.5446C121.697 16.9925 121.894 16.3589 121.894 15.6439C121.894 15.0776 121.774 14.5997 121.535 14.2104C121.302 13.821 121.005 13.5025 120.646 13.2547C120.293 13.0069 119.93 12.8122 119.556 12.6707C119.182 12.522 118.854 12.4088 118.572 12.3309C118.205 12.2247 117.853 12.115 117.514 12.0017C117.176 11.8885 116.897 11.754 116.678 11.5982C116.46 11.4425 116.351 11.2372 116.351 10.9823C116.351 10.7275 116.46 10.5151 116.678 10.3452C116.897 10.1753 117.172 10.0904 117.504 10.0904C117.898 10.0904 118.223 10.1965 118.477 10.4089C118.738 10.6213 118.935 10.8408 119.069 11.0673L121.64 9.9523C121.316 9.21607 120.765 8.62498 119.99 8.17898C119.221 7.73304 118.353 7.51001 117.387 7.51001C116.612 7.51001 115.92 7.65515 115.314 7.94538C114.714 8.23561 114.239 8.63915 113.886 9.1559C113.54 9.66561 113.368 10.2567 113.368 10.9292C113.368 11.5664 113.516 12.1079 113.812 12.5539C114.108 12.9998 114.492 13.368 114.965 13.6582C115.444 13.9414 115.952 14.1644 116.488 14.3272C116.721 14.3909 116.975 14.4617 117.25 14.5396C117.532 14.6174 117.8 14.7094 118.054 14.8157C118.308 14.9218 118.516 15.0493 118.678 15.1979C118.84 15.3466 118.921 15.5236 118.921 15.7289C118.921 15.8917 118.865 16.0438 118.752 16.1854C118.647 16.327 118.498 16.4438 118.308 16.5358C118.117 16.6208 117.895 16.6633 117.641 16.6633C117.162 16.6633 116.746 16.5146 116.393 16.2173C116.04 15.92 115.776 15.605 115.6 15.2722L112.976 16.4297C113.216 17.0031 113.572 17.5057 114.044 17.9375C114.517 18.3622 115.06 18.6914 115.674 18.925Z" fill="white"></path><path d="M135.483 19.1056V7.67995H138.667V9.1347H138.725C138.975 8.7871 139.255 8.49332 139.567 8.25332C140.201 7.75778 140.952 7.51001 141.82 7.51001C142.539 7.51001 143.149 7.68698 143.65 8.04098C144.036 8.30481 144.351 8.65875 144.595 9.10281H144.654C145.015 8.64167 145.453 8.28058 145.967 8.01972C146.637 7.67995 147.366 7.51001 148.157 7.51001C148.911 7.51001 149.532 7.64452 150.018 7.91355C150.505 8.17544 150.886 8.52235 151.161 8.95418C151.436 9.37892 151.63 9.84612 151.743 10.3558C151.856 10.8584 151.912 11.3469 151.912 11.8212V19.1056H148.548V12.2353C148.548 11.6124 148.417 11.1345 148.157 10.8018C147.903 10.462 147.529 10.2921 147.035 10.2921C146.711 10.2921 146.421 10.3665 146.168 10.5151C145.921 10.6567 145.724 10.8726 145.575 11.1628C145.434 11.4531 145.364 11.8106 145.364 12.2353V19.1056H142.021V12.2353C142.021 11.6124 141.89 11.1345 141.629 10.8018C141.368 10.462 140.991 10.2921 140.497 10.2921C140.018 10.2921 139.62 10.4585 139.302 10.7912C138.985 11.1168 138.826 11.6053 138.826 12.2566V19.1056H135.483Z" fill="white"></path><path d="M127.303 19.2754C126.52 19.2754 125.808 19.1091 125.166 18.7764C124.524 18.4366 124.013 17.941 123.632 17.2898C123.258 16.6314 123.071 15.8208 123.071 14.8581V7.67993H126.414V14.4121C126.414 15.0704 126.584 15.5731 126.922 15.9199C127.267 16.2598 127.687 16.4296 128.181 16.4296C128.548 16.4296 128.869 16.3482 129.144 16.1854C129.425 16.0226 129.644 15.7926 129.799 15.4952C129.962 15.1908 130.043 14.8298 130.043 14.4121V7.67993H133.385V15.1023C133.385 15.5129 133.446 15.8102 133.565 15.9943C133.685 16.1783 133.929 16.3376 134.295 16.4721L133.11 19.2754C132.271 19.056 131.658 18.7693 131.27 18.4154C131.075 18.237 130.927 18.0317 130.826 17.7995H130.741C130.446 18.0975 130.118 18.363 129.757 18.5959C129.045 19.0489 128.227 19.2754 127.303 19.2754Z" fill="white"></path><path fill-rule="evenodd" clip-rule="evenodd" d="M88.4879 19.2754C87.3943 19.2754 86.3964 19.0242 85.494 18.5216C84.598 18.0189 83.8824 17.3252 83.3461 16.4403C82.8173 15.5554 82.5531 14.536 82.5531 13.3821C82.5531 12.2282 82.8173 11.2089 83.3461 10.324C83.8824 9.4391 84.598 8.74887 85.494 8.25332C86.3964 7.75778 87.3943 7.51001 88.4879 7.51001C89.602 7.51001 90.6068 7.75778 91.5029 8.25332C92.3984 8.74887 93.1071 9.4391 93.6292 10.324C94.158 11.2089 94.4222 12.2282 94.4222 13.3821C94.4222 14.536 94.158 15.5554 93.6292 16.4403C93.1071 17.3252 92.395 18.0189 91.4921 18.5216C90.5966 19.0242 89.5952 19.2754 88.4879 19.2754ZM88.4879 16.4084C89.0094 16.4084 89.4785 16.281 89.8946 16.0262C90.3108 15.7713 90.6387 15.4174 90.8784 14.9643C91.118 14.5113 91.2382 13.9838 91.2382 13.3821C91.2382 12.8017 91.122 12.2849 90.8892 11.8318C90.6564 11.3788 90.3353 11.0248 89.9265 10.77C89.5172 10.508 89.0447 10.377 88.509 10.377C87.9801 10.377 87.5036 10.5045 87.0807 10.7593C86.6645 11.0071 86.3366 11.3575 86.0969 11.8106C85.8572 12.2636 85.7371 12.7875 85.7371 13.3821C85.7371 13.9838 85.8572 14.5113 86.0969 14.9643C86.3434 15.4174 86.6753 15.7713 87.0915 16.0262C87.5076 16.281 87.9727 16.4084 88.4879 16.4084Z" fill="white"></path><path fill-rule="evenodd" clip-rule="evenodd" d="M72.6588 23.3849C73.4484 23.6185 74.316 23.7353 75.2611 23.7353C76.1429 23.7353 76.9501 23.6221 77.684 23.3956C78.4172 23.1761 79.052 22.8434 79.5877 22.3974C80.1308 21.9515 80.5503 21.3993 80.8469 20.7409C81.143 20.0825 81.291 19.318 81.291 18.4473V7.6694H78.255V8.78431H78.1918C77.9897 8.5902 77.7711 8.41323 77.5354 8.2534C76.8021 7.75077 75.9454 7.49951 74.965 7.49951C74.1185 7.49951 73.3039 7.7154 72.5211 8.14723C71.7383 8.57197 71.0967 9.20911 70.5957 10.0586C70.1022 10.901 69.8551 11.9593 69.8551 13.2336C69.8551 14.1892 69.9997 15.021 70.2889 15.7289C70.5781 16.4368 70.9624 17.0279 71.4423 17.5023C71.929 17.9695 72.4681 18.3199 73.0608 18.5535C73.6534 18.78 74.2489 18.8933 74.8483 18.8933C75.815 18.8933 76.6752 18.6278 77.4301 18.0969C77.6686 17.9267 77.8918 17.7391 78.0984 17.5341H78.1491V18.6384C78.1491 19.1835 77.9732 19.6224 77.6202 19.9551C77.2678 20.2949 76.8408 20.5427 76.3404 20.6984C75.8395 20.8542 75.3561 20.932 74.891 20.932C74.3479 20.932 73.8117 20.8436 73.2828 20.6666C72.7608 20.4967 72.3025 20.2914 71.908 20.0507L70.8075 22.6841C71.259 22.9248 71.8761 23.1584 72.6588 23.3849ZM77.0173 15.782C76.6296 16.0369 76.1816 16.1643 75.6738 16.1643C75.1728 16.1643 74.7322 16.0369 74.3513 15.782C73.9705 15.5201 73.671 15.1626 73.4524 14.7095C73.2338 14.2494 73.124 13.722 73.124 13.1273C73.124 12.5327 73.2338 12.0159 73.4524 11.5771C73.6779 11.1381 73.9881 10.8019 74.3832 10.5683C74.7783 10.3276 75.2258 10.2072 75.7267 10.2072C76.2272 10.2072 76.6683 10.324 77.0492 10.5576C77.4301 10.7913 77.7295 11.1275 77.9481 11.5664C78.1667 11.9983 78.276 12.5185 78.276 13.1273C78.276 13.7291 78.1633 14.26 77.9379 14.7201C77.7119 15.1732 77.405 15.5272 77.0173 15.782Z" fill="white"></path><path fill-rule="evenodd" clip-rule="evenodd" d="M63.0714 19.2754C61.9784 19.2754 60.9804 19.0242 60.0775 18.5216C59.182 18.0189 58.4659 17.3252 57.9302 16.4403C57.4013 15.5554 57.1366 14.536 57.1366 13.3821C57.1366 12.2282 57.4013 11.2089 57.9302 10.324C58.4659 9.4391 59.182 8.74887 60.0775 8.25332C60.9804 7.75778 61.9784 7.51001 63.0714 7.51001C64.1855 7.51001 65.1909 7.75778 66.0864 8.25332C66.9819 8.74887 67.6906 9.4391 68.2127 10.324C68.7415 11.2089 69.0063 12.2282 69.0063 13.3821C69.0063 14.536 68.7415 15.5554 68.2127 16.4403C67.6906 17.3252 66.9785 18.0189 66.0756 18.5216C65.1801 19.0242 64.1787 19.2754 63.0714 19.2754ZM63.0714 16.4084C63.5935 16.4084 64.062 16.281 64.4781 16.0262C64.8943 15.7713 65.2222 15.4174 65.4624 14.9643C65.7021 14.5113 65.8217 13.9838 65.8217 13.3821C65.8217 12.8017 65.7055 12.2849 65.4727 11.8318C65.2399 11.3788 64.9193 11.0248 64.51 10.77C64.1013 10.508 63.6282 10.377 63.0925 10.377C62.5636 10.377 62.0877 10.5045 61.6641 10.7593C61.248 11.0071 60.9201 11.3575 60.6804 11.8106C60.4407 12.2636 60.3206 12.7875 60.3206 13.3821C60.3206 13.9838 60.4407 14.5113 60.6804 14.9643C60.9275 15.4174 61.2588 15.7713 61.675 16.0262C62.0911 16.281 62.5562 16.4084 63.0714 16.4084Z" fill="white"></path><path d="M48.0992 3.45386V19.1057H57.1867V16.0051H51.5691V3.45386H48.0992Z" fill="white"></path></g><defs><clipPath id="clip0_28_371"><rect width="152" height="24" fill="white"></rect></clipPath></defs></svg>