<svg xmlns="http://www.w3.org/2000/svg" width="140" height="24" viewBox="0 0 140 24" fill="none"><g clip-path="url(#clip0_28_403)"><path d="M22.8344 19.5314L22.8362 19.5334L19.0619 22.8565C18.2881 23.5547 17.2875 23.9503 16.2444 23.9698L16.2357 23.9699H3.30179C2.823 23.9901 2.34589 23.9002 1.90739 23.7071C1.46113 23.5105 1.06689 23.2125 0.756424 22.8366C0.445938 22.4607 0.227947 22.0176 0.119607 21.5428C0.0132819 21.0761 0.0155892 20.5908 0.126858 20.125L1.12265 15.037C1.21124 14.5941 1.44535 14.1932 1.78803 13.8981L1.83686 13.8561C1.73085 13.6955 1.65332 13.5176 1.60785 13.3302C1.54754 13.0816 1.54544 12.8229 1.60099 12.5742L2.59876 7.47667L2.6003 7.46941C2.79448 6.55472 3.28358 5.7289 3.99276 5.11837L7.4483 2.07584C7.60819 1.89257 7.78372 1.72186 7.97359 1.56579C8.73 0.944029 9.67127 0.58997 10.6504 0.558628L10.6667 0.558105L23.6163 0.595303C24.0945 0.575352 24.5711 0.665336 25.0091 0.858232C25.4554 1.05478 25.8496 1.35282 26.1601 1.72871C26.4705 2.10453 26.6886 2.54764 26.7969 3.02263C26.9033 3.48948 26.9008 3.97442 26.7898 4.43995L24.3163 17.1105L24.3127 17.1259C24.0955 18.0675 23.5762 18.912 22.8344 19.5314Z" fill="white"></path><path d="M23.4141 1.76599C23.7543 1.74876 24.0938 1.81168 24.4055 1.94962C24.7172 2.08755 24.9924 2.29668 25.2092 2.56038C25.4259 2.82408 25.5781 3.13498 25.6538 3.46827C25.7294 3.80156 25.7263 4.14801 25.6447 4.47987L23.1818 17.1585C23.0088 17.9118 22.5923 18.5865 21.9971 19.0774C21.402 19.5683 20.6617 19.8478 19.8917 19.8724H7.00572C6.66546 19.8894 6.3259 19.8265 6.01411 19.6886C5.70232 19.5506 5.42694 19.3416 5.20987 19.078C4.99281 18.8144 4.84005 18.5037 4.76378 18.1705C4.68752 17.8372 4.68984 17.4907 4.77056 17.1585L5.76501 12.0292C5.82332 11.7789 5.96248 11.5549 6.16082 11.3922C6.35915 11.2294 6.60555 11.1369 6.86169 11.1293C9.21305 11.2132 11.4715 11.3904 13.5766 12.1504L14.0412 15.0835C14.0526 15.1543 14.0898 15.2183 14.1457 15.2631C14.2015 15.308 14.2719 15.3304 14.3433 15.326C14.4252 15.3245 14.5055 15.3014 14.5756 15.2588C14.6458 15.2162 14.7036 15.1557 14.7429 15.0835L16.3322 12.1504L19.5107 11.1433C19.5876 11.1186 19.6568 11.0743 19.7114 11.0145C19.766 10.9548 19.8041 10.8819 19.822 10.8029C19.8402 10.733 19.8316 10.6589 19.7981 10.595C19.7646 10.5311 19.7085 10.4823 19.6408 10.4579L16.8526 9.45525L16.3879 6.52233C16.3766 6.45109 16.3395 6.38653 16.2839 6.34099C16.2282 6.29539 16.1577 6.27197 16.0859 6.27519C16.0034 6.27706 15.9229 6.30095 15.8527 6.34438C15.7824 6.38781 15.725 6.44922 15.6862 6.52233L14.097 9.45525C11.7924 10.1186 9.40788 10.4607 7.01038 10.4719C6.89529 10.4817 6.77956 10.4639 6.67263 10.42C6.56571 10.3763 6.47068 10.3077 6.39537 10.2198C6.32007 10.1319 6.26663 10.0273 6.23945 9.9147C6.21227 9.80208 6.21209 9.68454 6.23898 9.57179L7.23345 4.44254C7.40547 3.6896 7.8211 3.01501 8.41546 2.52407C9.00982 2.03311 9.74942 1.75351 10.5188 1.72876L23.4141 1.76599Z" fill="#0A0A0A"></path><path d="M102.682 18.7061C100.293 18.7061 98.5974 17.7283 98.063 15.8836L101.187 14.4632C101.409 15.2195 102.057 15.57 103.233 15.57C104.147 15.57 104.887 15.2933 104.99 14.703C105.12 13.9651 104.393 13.8545 103.283 13.6884C101.446 13.4117 98.8103 12.6923 99.3323 9.72229C99.7343 7.43486 102.114 5.68237 104.914 5.68237C107.117 5.68237 108.812 6.66007 109.346 8.50479L106.222 9.92524C105.974 9.31646 105.39 8.81837 104.214 8.81837C103.392 8.81837 102.899 9.07663 102.808 9.59316C102.685 10.2941 103.468 10.5155 104.667 10.7C106.485 10.9767 108.975 11.6777 108.45 14.6661C108.049 16.9536 105.482 18.7061 102.682 18.7061Z" fill="white"></path><path d="M121.666 18.4109H125.175L127.935 9.6116L128.633 16.8982C128.728 17.9497 129.571 18.4663 130.597 18.4663C131.643 18.4663 132.614 17.9313 133.126 16.8244L136.387 9.63004L135.852 18.4109H139.343L139.678 8.0067C139.72 6.49406 138.854 5.68237 137.38 5.68237C136.036 5.68237 134.79 6.29111 134.192 7.67468L131.343 14.2234L130.786 7.61931C130.675 6.2358 129.67 5.68237 128.364 5.68237C126.852 5.68237 125.667 6.47562 125.165 7.95139L121.666 18.4109Z" fill="white"></path><path d="M109.959 12.7847C109.311 16.4741 110.705 18.6324 114.662 18.6324C118.601 18.6324 120.791 16.4741 121.439 12.7847L122.638 5.95923H119.185L118.002 12.6924C117.665 14.6109 116.779 15.4042 115.229 15.4042C113.699 15.4042 113.091 14.6109 113.429 12.6924L114.612 5.95923H111.158L109.959 12.7847Z" fill="white"></path><path fill-rule="evenodd" clip-rule="evenodd" d="M86.4622 18.411L89.9191 18.3926L90.4505 15.3673H92.0185C95.6772 15.3673 98.0607 13.5963 98.5857 10.6079C99.0943 7.7117 97.2183 5.95923 93.485 5.95923H88.6503L86.4622 18.411ZM91.5524 9.09521H93.0271C94.5204 9.09521 95.2105 9.63018 95.039 10.6079C94.8541 11.6594 94.0258 12.2312 92.4764 12.2312H91.0018L91.5524 9.09521Z" fill="white"></path><path d="M82.9622 5.95923H86.4156L84.2275 18.411H80.7742L82.9622 5.95923Z" fill="white"></path><path fill-rule="evenodd" clip-rule="evenodd" d="M67.2607 12.1943C66.6091 15.9022 68.957 18.6877 72.765 18.6877C76.573 18.6877 79.8998 15.9022 80.5513 12.1943C81.2029 8.48647 78.855 5.70093 75.047 5.70093C71.239 5.70093 67.9123 8.48647 67.2607 12.1943ZM77.0047 12.1943C76.6803 14.039 75.0867 15.4595 73.332 15.4595C71.5773 15.4595 70.483 14.039 70.8074 12.1943C71.1317 10.3496 72.7248 8.92918 74.4794 8.92918C76.2341 8.92918 77.329 10.3496 77.0047 12.1943Z" fill="white"></path><path d="M60.0402 18.6877C56.2696 18.6877 53.8974 15.8284 54.5359 12.1943C55.1745 8.56022 58.5141 5.70093 62.3221 5.70093C64.5621 5.70093 66.5642 6.84463 67.1125 8.92918L64.0214 10.4788C63.6638 9.5379 63.0647 8.91074 61.6087 8.91074C59.8354 8.91074 58.4167 10.2943 58.0729 12.2497C57.7131 14.2973 58.6775 15.607 60.5815 15.607C61.5895 15.607 62.2405 15.5148 62.8658 15.0352L63.1551 13.3195L59.9241 11.8867H66.7467L66.6505 12.471H66.6581L66.5513 13.0773L66.5449 13.1172L66.5443 13.1175L66.0094 16.1604C64.7797 17.6362 62.5788 18.6877 60.0402 18.6877Z" fill="white"></path><path fill-rule="evenodd" clip-rule="evenodd" d="M40.8633 12.1943C40.2118 15.9022 42.5597 18.6877 46.3677 18.6877C50.1757 18.6877 53.5025 15.9022 54.154 12.1943C54.8055 8.48647 52.4577 5.70093 48.6497 5.70093C44.8417 5.70093 41.5149 8.48647 40.8633 12.1943ZM50.6073 12.1943C50.2832 14.039 48.6896 15.4595 46.935 15.4595C45.1803 15.4595 44.0858 14.039 44.41 12.1943C44.7342 10.3496 46.3278 8.92918 48.0824 8.92918C49.8371 8.92918 50.9315 10.3496 50.6073 12.1943Z" fill="white"></path><path d="M36.3918 5.95923L34.7548 15.275H40.3175L39.7665 18.411H33.7371C31.6091 18.411 30.945 17.3042 31.2529 15.5517L32.9384 5.95923H36.3918Z" fill="white"></path></g><defs><clipPath id="clip0_28_403"><rect width="140" height="24" fill="white"></rect></clipPath></defs></svg>