<svg xmlns="http://www.w3.org/2000/svg" width="179" height="30" viewBox="0 0 179 30" fill="none"><g clip-path="url(#clip0_8_465)"><path d="M156.698 24.0957V9.16163H160.606V11.8199H160.793C161.104 10.9382 161.624 10.2436 162.353 9.73602C163.082 9.22844 163.949 8.97461 164.954 8.97461C165.977 8.97461 166.844 9.2329 167.555 9.74941C168.275 10.257 168.755 10.9471 168.996 11.8199H169.156C169.458 10.9561 170.009 10.2659 170.81 9.74941C171.61 9.2329 172.552 8.97461 173.637 8.97461C175.024 8.97461 176.153 9.41546 177.025 10.2971C177.905 11.1787 178.345 12.4299 178.345 14.0506V24.0957H174.211V14.8788C174.211 14.0417 173.989 13.4183 173.544 13.0087C173.108 12.599 172.561 12.3942 171.903 12.3942C171.156 12.3942 170.569 12.6347 170.143 13.1156C169.725 13.5876 169.516 14.2109 169.516 14.9857V24.0957H165.514V14.7719C165.514 14.0506 165.305 13.4762 164.887 13.0488C164.47 12.6124 163.923 12.3942 163.247 12.3942C162.785 12.3942 162.371 12.51 162.007 12.7416C161.642 12.9731 161.353 13.2937 161.139 13.7033C160.926 14.104 160.819 14.5849 160.819 15.146V24.0957H156.698Z" fill="#0A0A0A"></path><path d="M150.819 17.7508V9.16162H154.94V24.0957H150.979V21.3841H150.819C150.481 22.2479 149.925 22.9514 149.152 23.4946C148.378 24.029 147.431 24.2916 146.311 24.2827C145.314 24.2827 144.435 24.0601 143.67 23.6148C142.914 23.1606 142.323 22.5151 141.896 21.6779C141.478 20.8408 141.269 19.839 141.269 18.6724V9.16162H145.39V17.9511C145.39 18.8238 145.626 19.5184 146.098 20.0349C146.569 20.5425 147.196 20.7919 147.978 20.783C148.476 20.783 148.938 20.6717 149.365 20.449C149.792 20.2175 150.139 19.8746 150.405 19.4205C150.681 18.9663 150.819 18.4097 150.819 17.7508Z" fill="#0A0A0A"></path><path d="M139.871 13.4228L136.096 13.6499C135.998 13.1779 135.736 12.7728 135.309 12.4343C134.883 12.087 134.309 11.9134 133.589 11.9134C132.949 11.9134 132.411 12.047 131.975 12.3141C131.548 12.5813 131.335 12.9375 131.335 13.3827C131.335 13.739 131.473 14.0461 131.748 14.3044C132.033 14.5538 132.518 14.7497 133.202 14.8921L135.91 15.4265C137.36 15.7204 138.439 16.1968 139.151 16.8558C139.863 17.5147 140.218 18.383 140.218 19.4606C140.218 20.449 139.933 21.3129 139.364 22.052C138.795 22.7822 138.013 23.3566 137.017 23.7751C136.021 24.1848 134.878 24.3896 133.589 24.3896C131.615 24.3896 130.041 23.9755 128.868 23.1473C127.702 22.3191 127.022 21.197 126.827 19.7811L130.868 19.5674C131.002 20.173 131.303 20.6316 131.775 20.9433C132.247 21.2549 132.851 21.4108 133.589 21.4108C134.309 21.4108 134.892 21.2683 135.336 20.9833C135.789 20.6984 136.017 20.3377 136.017 19.9013C136.017 19.1622 135.377 18.6635 134.096 18.4053L131.522 17.871C130.072 17.5771 128.992 17.074 128.28 16.3616C127.569 15.6491 127.214 14.7363 127.214 13.6231C127.214 12.6614 127.476 11.8332 128 11.1386C128.525 10.444 129.259 9.90966 130.201 9.53568C131.153 9.16163 132.264 8.97461 133.536 8.97461C135.42 8.97461 136.901 9.37537 137.977 10.1769C139.062 10.9694 139.693 12.0514 139.871 13.4228Z" fill="#0A0A0A"></path><path d="M111.851 29.6793V9.16163H115.906V11.6863H116.092C116.279 11.2766 116.546 10.8626 116.893 10.444C117.239 10.0255 117.693 9.67815 118.253 9.40207C118.814 9.11715 119.507 8.97461 120.334 8.97461C121.428 8.97461 122.428 9.25961 123.335 9.82954C124.251 10.3905 124.984 11.241 125.535 12.3809C126.087 13.5208 126.362 14.9456 126.362 16.6554C126.362 18.3118 126.096 19.7143 125.562 20.8631C125.029 22.003 124.304 22.8668 123.388 23.4546C122.481 24.0423 121.458 24.3361 120.32 24.3361C119.52 24.3361 118.84 24.2026 118.279 23.9355C117.72 23.6682 117.262 23.3344 116.906 22.9336C116.559 22.5239 116.288 22.1143 116.092 21.7047H115.972V29.6793H111.851ZM119.013 21.0501C119.689 21.0501 120.258 20.8631 120.72 20.4891C121.183 20.1151 121.534 19.5986 121.774 18.9396C122.014 18.2717 122.134 17.5059 122.134 16.642C122.134 15.7782 122.014 15.0213 121.774 14.3712C121.543 13.7122 121.196 13.1958 120.734 12.8217C120.271 12.4477 119.698 12.2607 119.013 12.2607C118.347 12.2607 117.778 12.4432 117.306 12.8083C116.844 13.1646 116.488 13.6722 116.239 14.3311C115.999 14.9812 115.879 15.7515 115.879 16.642C115.879 17.5237 116.004 18.294 116.252 18.953C116.501 19.612 116.857 20.1285 117.319 20.5024C117.791 20.8676 118.355 21.0501 119.013 21.0501Z" fill="#0A0A0A"></path><path d="M105.972 24.0955V9.16148H110.093V24.0955H105.972ZM108.025 7.25133C107.412 7.25133 106.887 7.0465 106.452 6.63686C106.016 6.22722 105.798 5.73298 105.798 5.15414C105.798 4.5753 106.016 4.08551 106.452 3.68477C106.887 3.27513 107.412 3.07031 108.025 3.07031C108.648 3.07031 109.177 3.27513 109.613 3.68477C110.048 4.08551 110.266 4.5753 110.266 5.15414C110.266 5.73298 110.048 6.22722 109.613 6.63686C109.177 7.0465 108.648 7.25133 108.025 7.25133Z" fill="#0A0A0A"></path><path d="M97.4914 24.3896C95.9885 24.3896 94.6858 24.069 93.5833 23.4278C92.4896 22.7778 91.645 21.8783 91.0488 20.7296C90.4622 19.5719 90.1692 18.2272 90.1692 16.6955C90.1692 15.146 90.4622 13.7969 91.0488 12.6481C91.645 11.4904 92.4896 10.591 93.5833 9.94976C94.6858 9.29971 95.9885 8.97461 97.4914 8.97461C99.003 8.97461 100.306 9.29971 101.399 9.94976C102.502 10.591 103.347 11.4904 103.933 12.6481C104.529 13.7969 104.827 15.146 104.827 16.6955C104.827 18.2272 104.529 19.5719 103.933 20.7296C103.347 21.8783 102.502 22.7778 101.399 23.4278C100.306 24.069 99.003 24.3896 97.4914 24.3896ZM97.5177 21.157C98.203 21.157 98.7765 20.9655 99.2383 20.5826C99.7008 20.1908 100.048 19.6564 100.279 18.9797C100.519 18.3029 100.639 17.5326 100.639 16.6687C100.639 15.796 100.519 15.0258 100.279 14.3579C100.048 13.6899 99.7008 13.1646 99.2383 12.7816C98.7765 12.3987 98.203 12.2072 97.5177 12.2072C96.8243 12.2072 96.242 12.3987 95.7708 12.7816C95.3083 13.1646 94.9569 13.6899 94.7173 14.3579C94.4857 15.0258 94.3702 15.796 94.3702 16.6687C94.3702 17.5326 94.4857 18.3029 94.7173 18.9797C94.9569 19.6564 95.3083 20.1908 95.7708 20.5826C96.242 20.9655 96.8243 21.157 97.5177 21.157Z" fill="#0A0A0A"></path><path d="M81.7555 29.9999C79.7456 29.9999 78.1719 29.5992 77.0336 28.7977C75.8953 28.0051 75.2019 27.0166 74.9528 25.8323L78.768 25.3247C78.8835 25.6275 79.0654 25.9079 79.3145 26.1662C79.5637 26.4244 79.8968 26.6292 80.3148 26.7806C80.7327 26.941 81.2441 27.0211 81.849 27.0211C82.747 27.0211 83.4893 26.8029 84.0759 26.3666C84.6634 25.9391 84.9563 25.2133 84.9563 24.1892V21.4509H84.7832C84.6049 21.8605 84.3339 22.2523 83.9693 22.6264C83.6047 23.0004 83.1378 23.3032 82.5687 23.5347C81.9995 23.7662 81.3193 23.882 80.5281 23.882C79.4081 23.882 78.3896 23.6238 77.4741 23.1072C76.5667 22.5819 75.8376 21.7804 75.2867 20.7029C74.7438 19.6253 74.4728 18.2628 74.4728 16.6153C74.4728 14.9145 74.7482 13.4985 75.2998 12.3675C75.8602 11.2365 76.5981 10.3905 77.5136 9.82954C78.4298 9.25961 79.4344 8.97461 80.5281 8.97461C81.3639 8.97461 82.0624 9.11715 82.622 9.40207C83.1912 9.67815 83.6537 10.0255 84.0095 10.444C84.3653 10.8626 84.6319 11.2766 84.8095 11.6863H84.9695V9.16163H89.0375V24.256C89.0375 25.5206 88.7263 26.5803 88.1045 27.4352C87.4821 28.2901 86.6236 28.9313 85.5299 29.3587C84.4361 29.7862 83.178 29.9999 81.7555 29.9999ZM81.8352 20.7697C82.831 20.7697 83.6003 20.4001 84.1432 19.6609C84.694 18.9218 84.9695 17.8977 84.9695 16.5886C84.9695 15.7159 84.8453 14.959 84.5961 14.3178C84.3565 13.6677 84.0051 13.1646 83.5426 12.8083C83.0801 12.4432 82.511 12.2607 81.8352 12.2607C81.1593 12.2607 80.5858 12.4477 80.1146 12.8217C79.6521 13.1868 79.3014 13.6944 79.061 14.3445C78.8214 14.9946 78.7008 15.7426 78.7008 16.5886C78.7008 17.4435 78.8214 18.1871 79.061 18.8194C79.3014 19.4428 79.6521 19.9237 80.1146 20.262C80.5858 20.6004 81.1593 20.7697 81.8352 20.7697Z" fill="#0A0A0A"></path><path d="M66.6062 24.3896C65.1035 24.3896 63.8008 24.069 62.6982 23.4278C61.6045 22.7778 60.7597 21.8783 60.164 20.7296C59.5772 19.5719 59.2837 18.2272 59.2837 16.6955C59.2837 15.146 59.5772 13.7969 60.164 12.6481C60.7597 11.4904 61.6045 10.591 62.6982 9.94976C63.8008 9.29971 65.1035 8.97461 66.6062 8.97461C68.1178 8.97461 69.4205 9.29971 70.5142 9.94976C71.6168 10.591 72.4615 11.4904 73.0484 12.6481C73.6442 13.7969 73.9423 15.146 73.9423 16.6955C73.9423 18.2272 73.6442 19.5719 73.0484 20.7296C72.4615 21.8783 71.6168 22.7778 70.5142 23.4278C69.4205 24.069 68.1178 24.3896 66.6062 24.3896ZM66.6328 21.157C67.3176 21.157 67.8911 20.9655 68.3534 20.5826C68.8158 20.1908 69.1627 19.6564 69.3938 18.9797C69.6339 18.3029 69.7539 17.5326 69.7539 16.6687C69.7539 15.796 69.6339 15.0258 69.3938 14.3579C69.1627 13.6899 68.8158 13.1646 68.3534 12.7816C67.8911 12.3987 67.3176 12.2072 66.6328 12.2072C65.9393 12.2072 65.3569 12.3987 64.8856 12.7816C64.4233 13.1646 64.072 13.6899 63.8319 14.3579C63.6007 15.0258 63.4851 15.796 63.4851 16.6687C63.4851 17.5326 63.6007 18.3029 63.8319 18.9797C64.072 19.6564 64.4233 20.1908 64.8856 20.5826C65.3569 20.9655 65.9393 21.157 66.6328 21.157Z" fill="#0A0A0A"></path><path d="M46.0286 24.0956V4.19238H50.2167V20.6225H58.7395V24.0956H46.0286Z" fill="#0A0A0A"></path><path d="M27.321 29.2683C32.0209 29.1724 35.8 25.3224 35.8 20.5894C35.8 18.2876 34.8876 16.0801 33.2635 14.4525L18.8421 0V8.98324C18.8421 10.4856 19.4376 11.9265 20.4978 12.9888L23.876 16.3744L23.8852 16.3834L29.5498 22.0602C29.7337 22.2446 29.7337 22.5435 29.5498 22.7278C29.3659 22.9122 29.0676 22.9122 28.8837 22.7278L26.9311 20.771H8.8689L6.91638 22.7278C6.73242 22.9122 6.43417 22.9122 6.25021 22.7278C6.06625 22.5435 6.06625 22.2446 6.25021 22.0602L11.9148 16.3834L11.924 16.3744L15.3022 12.9888C16.3624 11.9265 16.9579 10.4856 16.9579 8.98324V0L2.5365 14.4525C0.912403 16.0801 0 18.2876 0 20.5894C0 25.3224 3.77911 29.1724 8.47897 29.2683H27.321Z" fill="#FF0A0A"></path></g><defs><clipPath id="clip0_8_465"><rect width="179" height="30" fill="white"></rect></clipPath></defs></svg>