<svg xmlns="http://www.w3.org/2000/svg" width="101" height="24" viewBox="0 0 101 24" fill="none"><g clip-path="url(#clip0_28_385)"><path d="M48.349 0C47.7857 2.47594 47.5633 3.45334 44.2024 3.75902C47.5633 3.45334 47.341 4.43074 46.7777 6.90672C47.3376 4.44545 47.5633 3.45334 50.8715 3.15246C47.5633 3.45334 47.789 2.46123 48.349 0Z" fill="white"></path><path d="M49.8017 6.56872C48.8565 7.16416 47.7091 7.3057 46.5991 7.4362C45.3831 7.57912 44.1795 7.72726 42.9897 7.8802C43.3048 6.49618 43.4516 5.93537 45.3352 5.76405C43.4318 5.93717 43.5617 5.36634 43.8838 3.95023C43.5597 5.37481 43.4318 5.93717 41.4981 6.11302C43.4118 5.93898 43.3063 6.48796 42.9897 7.8802C39.4377 8.33686 36.0086 8.8366 32.7419 9.36892C36.5268 8.90836 41.7873 8.45962 46.3021 8.07454C47.7677 7.9495 49.7337 7.79494 50.1514 9.20254C50.2835 9.64786 50.2858 10.1966 50.206 10.8521H48.2083L46.5592 18.5948H50.9479L52.597 10.8521H50.37C50.7108 9.81742 51.1365 9.01018 51.8343 8.38774C52.7225 7.59544 53.9782 7.4296 55.1664 7.34404C79.3157 5.60511 98.3289 6.8758 98.6415 10.4209C98.7311 11.4303 97.2949 12.5227 94.6394 13.6266V13.6307L94.6304 13.6343V13.6266C95.6145 13.2113 97.5949 12.1818 97.7163 10.8521H93.5122L91.8505 14.6822C91.8493 14.689 91.8439 14.6959 91.8355 14.7028H91.8246L91.8294 14.6822C91.8216 14.2554 91.8102 13.8287 91.7952 13.4021C91.7874 12.9753 91.7789 12.552 91.7693 12.1322C91.7615 11.7055 91.7507 11.2788 91.7357 10.8521H86.0989L84.4498 18.5948H88.3101L89.2179 14.3312L89.2203 14.3208H89.2305C89.2323 14.3208 89.2341 14.321 89.2353 14.3214C89.2377 14.3223 89.2395 14.3242 89.2395 14.3271C89.2395 14.3279 89.2395 14.3288 89.2395 14.3297L89.2389 14.3312C89.2642 15.04 89.2864 15.7489 89.3045 16.4578C89.3225 17.1667 89.3435 17.879 89.3676 18.5948H92.0639L94.0154 14.3002L94.0172 14.2899H94.028C94.0322 14.2899 94.0346 14.2911 94.0358 14.2935C94.0364 14.2939 94.0364 14.2944 94.0364 14.295V14.2958C94.0364 14.2971 94.0364 14.2985 94.0364 14.3002L93.1214 18.5948H97.1933L98.6488 11.7601C100.129 10.8612 100.887 9.9922 100.799 9.18508C100.377 5.31332 80.6395 4.22819 55.5884 6.49984C55.5412 6.50416 55.4935 6.50854 55.4455 6.51298L55.439 6.51358C54.2589 6.62254 52.8419 6.75334 52.2413 5.75976C51.6645 4.80564 52.0326 3.18795 52.5614 0.863525C51.9127 3.71446 51.508 5.49379 49.8017 6.56872Z" fill="white"></path><path fill-rule="evenodd" clip-rule="evenodd" d="M33.2241 10.9967C32.4708 10.6939 31.4666 10.5425 30.2118 10.5425C29.6125 10.5425 29.0545 10.5803 28.5378 10.6561C28.0282 10.7317 27.557 10.8419 27.1244 10.9864C26.6918 11.131 26.2991 11.303 25.9464 11.5026C25.6022 11.6953 25.2909 11.9155 25.0125 12.1633C24.7356 12.4042 24.4931 12.6657 24.285 12.9479C24.0853 13.2232 23.918 13.5122 23.783 13.8151C23.6566 14.111 23.5596 14.4173 23.4921 14.7338C23.4101 15.1193 23.3767 15.4909 23.3922 15.8488C23.4091 16.1998 23.4727 16.5302 23.583 16.8398C23.7018 17.1427 23.8687 17.418 24.0839 17.6657C24.3061 17.9135 24.5779 18.1268 24.8993 18.3058C25.2222 18.4778 25.5955 18.6121 26.0191 18.7084C26.4498 18.8048 26.9331 18.853 27.4689 18.853C27.7156 18.853 27.9293 18.8426 28.11 18.822C28.2962 18.8082 28.4882 18.7841 28.6858 18.7497C28.8851 18.3437 29.0851 17.9342 29.2859 17.5212C29.4951 17.1014 29.7002 16.685 29.9009 16.2721C29.9581 16.1543 30.0153 16.0369 30.0724 15.9197C30.1255 15.8108 30.1786 15.7021 30.2315 15.5936C30.3215 15.4096 30.4113 15.2263 30.5009 15.0436L29.7446 18.5948H34.2285L34.9849 15.0436H30.5009L35.2937 13.9906C35.3201 13.3367 35.1698 12.7517 34.8426 12.2356C34.5169 11.7125 33.9774 11.2996 33.2241 10.9967ZM30.5009 15.0436C30.3856 15.1881 30.2204 15.3016 30.0054 15.3842C29.7919 15.46 29.5054 15.4978 29.1458 15.4978C28.9131 15.4978 28.7173 15.4737 28.5584 15.4255C28.3995 15.3773 28.2759 15.312 28.1877 15.2294C28.0996 15.1468 28.0411 15.0573 28.0122 14.961C27.9849 14.8577 27.9829 14.7511 28.0064 14.641C28.0386 14.4895 28.1075 14.3485 28.2129 14.2177C28.3268 14.08 28.4885 13.9664 28.6978 13.877C28.9143 13.7875 29.1882 13.7428 29.5196 13.7428C29.872 13.7428 30.1423 13.7978 30.3304 13.9079C30.5184 14.0181 30.6272 14.1695 30.6566 14.3622C30.6861 14.5549 30.6342 14.782 30.5009 15.0436Z" fill="white"></path><path d="M42.868 10.5632C42.6328 10.5494 42.3876 10.5425 42.1325 10.5425C41.484 10.5425 40.878 10.5907 40.3146 10.687C39.7598 10.7765 39.2482 10.9107 38.7801 11.0896C38.3133 11.2617 37.8914 11.4716 37.5144 11.7194C37.1458 11.9603 36.8193 12.2356 36.5348 12.5453C36.2573 12.8549 36.0234 13.1922 35.8328 13.5569C35.6494 13.9217 35.5144 14.3071 35.428 14.7132C35.4198 14.7514 35.4122 14.7895 35.4051 14.8275C40.4244 14.7248 41.6293 13.5045 42.868 10.5632Z" fill="white"></path><path d="M35.4051 14.8274C35.3542 15.0981 35.3284 15.3664 35.3275 15.6319C35.3335 15.9347 35.3777 16.2238 35.46 16.499C35.5494 16.7744 35.677 17.0359 35.8428 17.2837C36.0171 17.5246 36.2346 17.7448 36.4952 17.9444C36.7629 18.1439 37.0823 18.316 37.4534 18.4606C37.8259 18.5982 38.2509 18.7049 38.7283 18.7805C39.0212 18.8306 39.3355 18.8656 39.6711 18.8852C40.6918 15.9461 40.4156 14.7512 35.4051 14.8274Z" fill="white"></path><path d="M39.7077 18.8873C39.9144 18.8987 40.129 18.9044 40.3516 18.9044C41.1906 18.9044 41.9434 18.8287 42.6102 18.6773C43.2825 18.5328 43.8757 18.3297 44.3896 18.0682C44.9051 17.7998 45.3447 17.4901 45.7085 17.1391C46.0737 16.7812 46.3666 16.3992 46.587 15.9932C46.8089 15.5802 46.9668 15.1535 47.0606 14.713C47.0673 14.6817 47.0736 14.6505 47.0796 14.6194C42.1412 14.721 40.9404 15.9583 39.7077 18.8873Z" fill="white"></path><path d="M47.0796 14.6195C42.1564 14.6937 41.892 13.4847 42.905 10.5654C43.8494 10.6242 44.6326 10.7955 45.2542 11.0793C46.0381 11.4372 46.5784 11.9292 46.8751 12.5556C47.1602 13.1576 47.2284 13.8458 47.0796 14.6195Z" fill="white"></path><path fill-rule="evenodd" clip-rule="evenodd" d="M69.7808 13.9436L74.0637 13.7531C74.2735 13.2644 74.318 12.824 74.1971 12.4317C74.0763 12.0394 73.81 11.7022 73.3975 11.42C72.9923 11.1378 72.4603 10.921 71.8014 10.7696C71.1503 10.6182 70.3904 10.5425 69.5235 10.5425C68.9103 10.5425 68.3133 10.5803 67.7331 10.6561C67.1602 10.7317 66.6221 10.8419 66.1189 10.9864C65.623 11.131 65.1751 11.3133 64.7759 11.5336C64.3845 11.7469 64.0635 11.9981 63.8116 12.2872C63.5609 12.5693 63.3985 12.886 63.3234 13.237C63.2531 13.5673 63.2741 13.8667 63.3859 14.1351C63.4995 14.3966 63.737 14.6237 64.0977 14.8165C64.4584 15.0091 64.9725 15.1606 65.6398 15.2707C66.0817 15.3389 66.6053 15.3845 67.2107 15.4077L62.8322 15.694C62.6627 16.2583 62.6543 16.7435 62.8076 17.1496C62.9681 17.5556 63.2669 17.8894 63.7045 18.151C64.144 18.4056 64.7031 18.5948 65.3813 18.7187C66.06 18.8426 66.8295 18.9046 67.6898 18.9046C68.4654 18.9046 69.2 18.8461 69.895 18.7291C70.5954 18.619 71.2224 18.4538 71.7773 18.2335C72.3401 18.0064 72.7976 17.7277 73.1505 17.3974C73.5112 17.0601 73.7378 16.6747 73.8298 16.2411C73.9152 15.8419 73.8965 15.4978 73.7751 15.2087C73.6549 14.9128 73.403 14.6719 73.0194 14.4861C72.6376 14.2934 72.1002 14.1523 71.407 14.0628C70.9459 14.0033 70.4036 13.9636 69.7808 13.9436ZM69.6599 13.94C69.3828 13.9324 69.0894 13.9286 68.781 13.9286H68.5171C68.3265 13.9286 68.1738 13.9183 68.0578 13.8976C67.9496 13.877 67.8726 13.8426 67.8263 13.7944C67.7818 13.7393 67.768 13.6705 67.7854 13.588C67.8005 13.5191 67.8353 13.4537 67.8906 13.3918C67.9532 13.3298 68.0277 13.2782 68.1143 13.237C68.2093 13.1888 68.3151 13.1543 68.4323 13.1337C68.5508 13.1062 68.6806 13.0924 68.8219 13.0924C69.0473 13.0924 69.2415 13.1234 69.405 13.1853C69.5764 13.2404 69.6906 13.3333 69.7471 13.4641C69.8048 13.586 69.7754 13.7447 69.6599 13.94ZM67.4019 15.4142C67.3099 15.6119 67.2901 15.7775 67.3436 15.9107C67.4061 16.0484 67.5251 16.1516 67.7007 16.2205C67.8768 16.2893 68.0806 16.3237 68.3133 16.3237C68.4546 16.3237 68.5832 16.3133 68.7004 16.2927C68.8249 16.2721 68.9373 16.2411 69.0377 16.1998C69.1381 16.1585 69.2199 16.1069 69.2824 16.045C69.3461 15.9761 69.387 15.9004 69.4044 15.8178C69.4399 15.6526 69.3744 15.5459 69.2085 15.4978C69.0497 15.4496 68.8045 15.4255 68.4732 15.4255H68.2087C67.9261 15.4255 67.6574 15.4217 67.4019 15.4142Z" fill="white"></path><path d="M79.7059 10.8521H75.3172L74.2771 15.7351C74.1881 16.1549 74.202 16.5369 74.3186 16.881C74.4376 17.2182 74.6354 17.5142 74.9126 17.7689C75.1981 18.0166 75.5408 18.2265 75.9418 18.3986C76.3488 18.5706 76.7943 18.698 77.2771 18.7805C77.767 18.8631 78.2696 18.9044 78.7842 18.9044C79.4329 18.9044 80.078 18.839 80.7189 18.7083C81.367 18.5775 81.9657 18.3813 82.5152 18.1198C83.0659 17.8514 83.5276 17.521 83.9004 17.1288C84.2809 16.7296 84.528 16.265 84.641 15.7351L85.6811 10.8521H81.2924L80.4237 14.9298C80.3816 15.1294 80.268 15.2808 80.084 15.3841C79.9 15.4873 79.7053 15.5389 79.5009 15.5389C79.4023 15.5389 79.3067 15.5251 79.2135 15.4977C79.1281 15.4701 79.0512 15.4323 78.9838 15.3841C78.9255 15.329 78.8792 15.2636 78.8462 15.188C78.8197 15.1122 78.8179 15.0228 78.8396 14.9195L79.7059 10.8521Z" fill="white"></path><path fill-rule="evenodd" clip-rule="evenodd" d="M59.7149 10.8521C60.3704 10.8521 60.9228 10.9415 61.3707 11.1204C61.8276 11.2925 62.1823 11.5299 62.4354 11.8328C62.6964 12.1287 62.8683 12.4659 62.9495 12.8445C63.0312 13.223 63.0288 13.6153 62.9422 14.0214C62.8497 14.4549 62.6771 14.8679 62.4246 15.2602C62.1805 15.6456 61.8601 15.9897 61.4645 16.2926C61.0755 16.5954 60.6186 16.8363 60.0943 17.0152C59.5713 17.1873 58.9889 17.2733 58.3473 17.2733H56.0737L56.061 17.2836H56.0504L56.0482 17.294L55.7711 18.5947H51.3719L53.0209 10.8521H59.7149ZM57.5237 15.0331C57.7353 15.0331 57.9188 14.9987 58.0745 14.9298C58.2387 14.8541 58.3677 14.7612 58.4617 14.6511C58.5571 14.5341 58.6173 14.4171 58.6422 14.3001C58.6686 14.1762 58.6575 14.0627 58.609 13.9595C58.562 13.8493 58.4752 13.7598 58.3489 13.691C58.2225 13.6222 58.0501 13.5878 57.8316 13.5878H56.8587C56.8516 13.5878 56.8438 13.5912 56.8353 13.5981L56.8331 13.6085L56.5319 15.0228C56.5389 15.0228 56.5417 15.0262 56.5402 15.0331H57.5237Z" fill="white"></path><path fill-rule="evenodd" clip-rule="evenodd" d="M7.08371 15.5596L7.08809 15.5389L8.08631 10.8521H3.69763L2.28446 17.4872C0.720016 18.4132 -0.0836617 19.3087 0.0068953 20.1386C0.462602 24.3153 23.3951 25.2491 51.228 22.2244C56.5016 21.6513 61.5727 20.9772 66.3257 20.2325C63.8067 20.4574 61.123 20.685 58.3723 20.9182L58.369 20.9184L58.3639 20.9189L58.3605 20.9191L58.3569 20.9194L58.3496 20.9201C55.9332 21.1249 53.4651 21.3342 51.0109 21.5499C24.3693 23.8921 2.49989 22.707 2.16408 18.9028C2.07551 17.8991 3.4946 16.8135 6.12126 15.7159C4.24965 16.5378 3.45093 17.6129 3.22673 18.5947H10.5828L11.2292 15.5596H7.08371ZM5.99026 15.7563C5.94781 15.7731 5.90562 15.7899 5.86372 15.8067C6.01707 15.7466 6.17326 15.6864 6.33204 15.6263C6.35693 15.616 6.382 15.6058 6.40719 15.5957C6.33571 15.6226 6.26495 15.6495 6.19491 15.6765C6.15811 15.6907 6.1215 15.7049 6.08507 15.7191C6.05333 15.7315 6.0217 15.7439 5.99026 15.7563Z" fill="white"></path><path d="M19.0913 10.5632C18.8561 10.5494 18.6109 10.5425 18.3559 10.5425C17.7072 10.5425 17.1012 10.5907 16.5379 10.687C15.983 10.7765 15.4715 10.9107 15.0033 11.0896C14.5366 11.2617 14.1148 11.4716 13.7377 11.7194C13.3691 11.9603 13.0426 12.2356 12.7581 12.5453C12.4806 12.8549 12.2466 13.1922 12.0561 13.5569C11.8727 13.9217 11.7377 14.3071 11.6513 14.7132C11.6471 14.7329 11.643 14.7525 11.6391 14.7721C11.6354 14.7906 11.6318 14.8091 11.6284 14.8275C16.6477 14.7248 17.8526 13.5045 19.0913 10.5632Z" fill="white"></path><path d="M11.6283 14.8274C11.5775 15.0981 11.5516 15.3664 11.5507 15.6319C11.5567 15.9347 11.6009 16.2238 11.6833 16.499C11.7727 16.7744 11.9003 17.0359 12.0661 17.2837C12.2404 17.5246 12.4579 17.7448 12.7185 17.9444C12.9862 18.1439 13.3056 18.316 13.6767 18.4606C14.0492 18.5982 14.4742 18.7049 14.9515 18.7805C15.2444 18.8306 15.5587 18.8656 15.8944 18.8852C16.915 15.9461 16.6388 14.7512 11.6283 14.8274Z" fill="white"></path><path d="M15.931 18.8873C16.1376 18.8987 16.3523 18.9044 16.5749 18.9044C17.4138 18.9044 18.1667 18.8287 18.8335 18.6773C19.5058 18.5328 20.0989 18.3297 20.613 18.0682C21.1284 17.7998 21.5679 17.4901 21.9318 17.1391C22.297 16.7812 22.5899 16.3992 22.8103 15.9932C23.0322 15.5802 23.1901 15.1535 23.2839 14.713C23.2906 14.6817 23.2969 14.6505 23.3029 14.6194C18.3645 14.721 17.1637 15.9583 15.931 18.8873Z" fill="white"></path><path d="M23.3029 14.6195C18.3797 14.6937 18.1154 13.4847 19.1283 10.5654C20.0728 10.6242 20.8558 10.7955 21.4775 11.0793C22.2614 11.4372 22.8017 11.9292 23.0983 12.5556C23.3835 13.1576 23.4517 13.8458 23.3029 14.6195Z" fill="white"></path><path d="M98.9728 18.5947C99.3642 18.5947 99.6816 18.278 99.6816 17.8872C99.6816 17.4965 99.3642 17.1797 98.9728 17.1797C98.5808 17.1797 98.264 17.4965 98.264 17.8872C98.264 18.278 98.5808 18.5947 98.9728 18.5947Z" fill="white"></path></g><defs><clipPath id="clip0_28_385"><rect width="101" height="24" fill="white"></rect></clipPath></defs></svg>