<svg xmlns="http://www.w3.org/2000/svg" width="167" height="30" viewBox="0 0 167 30" fill="none"><g clip-path="url(#clip0_8_378)"><path fill-rule="evenodd" clip-rule="evenodd" d="M0 10.4651V21.6279H3.49372C3.86075 21.6279 4.2242 21.7001 4.56333 21.8403C4.90239 21.9806 5.21056 22.1861 5.47003 22.4453C5.72959 22.7044 5.93549 23.0121 6.07598 23.3507C6.21637 23.6893 6.2887 24.0521 6.2887 24.4186V27.907H14.6736L25.1548 17.4419V6.27907H21.6611C21.294 6.27907 20.9306 6.20689 20.5914 6.06665C20.2524 5.9264 19.9443 5.72083 19.6848 5.4617C19.4252 5.20256 19.2193 4.8949 19.0788 4.55632C18.9384 4.21775 18.8661 3.85486 18.8661 3.48837V0H10.4812L0 10.4651ZM11.8787 20.9302H6.98745V13.2558L13.2762 6.97674H18.1674V14.6512L11.8787 20.9302Z" fill="#0004E8"></path><path d="M161.108 8.54346C162.873 8.54346 164.292 9.08764 165.365 10.176C166.455 11.2472 167 12.7502 167 14.685V23.1071H163.367V15.1774C163.367 14.0545 163.081 13.1993 162.51 12.6119C161.939 12.0073 161.161 11.705 160.174 11.705C159.188 11.705 158.401 12.0073 157.812 12.6119C157.241 13.1993 156.956 14.0545 156.956 15.1774V23.1071H153.323V15.1774C153.323 14.0545 153.037 13.1993 152.466 12.6119C151.895 12.0073 151.116 11.705 150.13 11.705C149.127 11.705 148.331 12.0073 147.743 12.6119C147.172 13.1993 146.886 14.0545 146.886 15.1774V23.1071H143.252V8.75074H146.886V10.487C147.353 9.88236 147.95 9.40725 148.677 9.06176C149.421 8.7162 150.234 8.54346 151.116 8.54346C152.241 8.54346 153.244 8.78534 154.127 9.26904C155.01 9.7355 155.693 10.4092 156.177 11.2903C156.645 10.4611 157.32 9.79592 158.201 9.29492C159.101 8.79392 160.071 8.54346 161.108 8.54346Z" fill="#0A0A0A"></path><path d="M140.576 8.75098V23.1073H136.916V21.2933C136.449 21.9153 135.835 22.4076 135.074 22.7704C134.33 23.1159 133.516 23.2887 132.634 23.2887C131.509 23.2887 130.514 23.0555 129.649 22.589C128.784 22.1053 128.101 21.4056 127.599 20.49C127.114 19.557 126.872 18.4514 126.872 17.173V8.75098H130.506V16.6547C130.506 17.7949 130.791 18.676 131.362 19.2979C131.933 19.9026 132.712 20.2049 133.698 20.2049C134.702 20.2049 135.489 19.9026 136.06 19.2979C136.631 18.676 136.916 17.7949 136.916 16.6547V8.75098H140.576Z" fill="#0A0A0A"></path><path d="M119.27 23.3404C118.093 23.3404 117.038 23.133 116.103 22.7184C115.169 22.2865 114.425 21.7077 113.872 20.9822C113.335 20.2566 113.041 19.4533 112.989 18.5722H116.648C116.718 19.125 116.986 19.5828 117.453 19.9456C117.938 20.3084 118.534 20.4898 119.244 20.4898C119.936 20.4898 120.473 20.3516 120.853 20.0752C121.251 19.7988 121.45 19.4446 121.45 19.0128C121.45 18.5463 121.208 18.2007 120.724 17.9762C120.256 17.7343 119.504 17.4752 118.465 17.1987C117.393 16.9396 116.51 16.6719 115.818 16.3954C115.143 16.119 114.555 15.6957 114.053 15.1257C113.568 14.5555 113.327 13.7868 113.327 12.8193C113.327 12.0246 113.552 11.2991 114.002 10.6426C114.468 9.98604 115.126 9.46781 115.973 9.08772C116.839 8.70762 117.851 8.51758 119.01 8.51758C120.724 8.51758 122.09 8.94951 123.111 9.8133C124.132 10.6599 124.695 11.8086 124.798 13.2599H121.32C121.269 12.6897 121.026 12.2406 120.594 11.9123C120.179 11.5668 119.616 11.394 118.907 11.394C118.249 11.394 117.738 11.515 117.375 11.7569C117.029 11.9987 116.856 12.3356 116.856 12.7675C116.856 13.2512 117.098 13.6227 117.583 13.8818C118.068 14.1237 118.82 14.3741 119.841 14.6333C120.879 14.8924 121.735 15.1602 122.41 15.4366C123.085 15.713 123.665 16.1449 124.149 16.7323C124.651 17.3024 124.91 18.0625 124.928 19.0128C124.928 19.8419 124.695 20.5848 124.227 21.2413C123.777 21.8978 123.12 22.4161 122.254 22.7962C121.407 23.159 120.412 23.3404 119.27 23.3404Z" fill="#0A0A0A"></path><path d="M100.72 10.824C101.187 10.1674 101.827 9.62325 102.641 9.19139C103.471 8.74223 104.414 8.51758 105.469 8.51758C106.698 8.51758 107.805 8.81995 108.792 9.42462C109.795 10.0292 110.582 10.893 111.154 12.016C111.742 13.1217 112.035 14.4087 112.035 15.8771C112.035 17.3456 111.742 18.6499 111.154 19.7901C110.582 20.9131 109.795 21.7855 108.792 22.4074C107.805 23.0293 106.698 23.3404 105.469 23.3404C104.414 23.3404 103.48 23.1244 102.667 22.6925C101.871 22.2606 101.222 21.7164 100.72 21.06V29.9484H97.0864V8.75081H100.72V10.824ZM108.324 15.8771C108.324 15.0133 108.143 14.2705 107.779 13.6486C107.433 13.0093 106.966 12.5256 106.378 12.1974C105.807 11.8691 105.184 11.705 104.509 11.705C103.852 11.705 103.229 11.8778 102.641 12.2233C102.069 12.5515 101.602 13.0352 101.239 13.6744C100.893 14.3136 100.72 15.0652 100.72 15.929C100.72 16.7928 100.893 17.5443 101.239 18.1835C101.602 18.8227 102.069 19.3151 102.641 19.6606C103.229 19.9888 103.852 20.153 104.509 20.153C105.184 20.153 105.807 19.9802 106.378 19.6347C106.966 19.2891 107.433 18.7968 107.779 18.1576C108.143 17.5183 108.324 16.7582 108.324 15.8771Z" fill="#0A0A0A"></path><path d="M92.6137 7.04041C91.9737 7.04041 91.4377 6.84173 91.0052 6.44438C90.5895 6.02976 90.3819 5.52012 90.3819 4.91546C90.3819 4.31081 90.5895 3.80981 91.0052 3.41246C91.4377 2.99784 91.9737 2.79053 92.6137 2.79053C93.2545 2.79053 93.782 2.99784 94.1971 3.41246C94.6296 3.80981 94.8462 4.31081 94.8462 4.91546C94.8462 5.52012 94.6296 6.02976 94.1971 6.44438C93.782 6.84173 93.2545 7.04041 92.6137 7.04041ZM94.4046 8.75069V23.107H90.7711V8.75069H94.4046Z" fill="#0A0A0A"></path><path d="M81.5135 23.3404C80.1293 23.3404 78.8841 23.038 77.7766 22.4334C76.6691 21.8114 75.7956 20.939 75.1549 19.8161C74.5323 18.6932 74.2207 17.3974 74.2207 15.929C74.2207 14.4605 74.5407 13.1649 75.1807 12.0419C75.8383 10.919 76.7299 10.0552 77.8541 9.45051C78.9791 8.8286 80.2334 8.51758 81.6176 8.51758C83.0018 8.51758 84.256 8.8286 85.381 9.45051C86.5053 10.0552 87.3878 10.919 88.0279 12.0419C88.6854 13.1649 89.0145 14.4605 89.0145 15.929C89.0145 17.3974 88.677 18.6932 88.002 19.8161C87.3445 20.939 86.4452 21.8114 85.3028 22.4334C84.1785 23.038 82.9152 23.3404 81.5135 23.3404ZM81.5135 20.1789C82.171 20.1789 82.7852 20.0233 83.3568 19.7124C83.9451 19.3841 84.4119 18.9004 84.7577 18.2612C85.1043 17.622 85.2769 16.8446 85.2769 15.929C85.2769 14.5642 84.9136 13.519 84.1869 12.7934C83.4776 12.0505 82.6035 11.6791 81.5659 11.6791C80.5275 11.6791 79.6541 12.0505 78.9442 12.7934C78.2524 13.519 77.9066 14.5642 77.9066 15.929C77.9066 17.2938 78.2433 18.3476 78.9183 19.0905C79.6108 19.8161 80.4758 20.1789 81.5135 20.1789Z" fill="#0A0A0A"></path><path d="M65.8716 23.3404C64.4874 23.3404 63.2417 23.038 62.1343 22.4334C61.027 21.8114 60.1532 20.939 59.513 19.8161C58.8901 18.6932 58.5787 17.3974 58.5787 15.929C58.5787 14.4605 58.8988 13.1649 59.539 12.0419C60.1964 10.919 61.0876 10.0552 62.2122 9.45051C63.3369 8.8286 64.5913 8.51758 65.9755 8.51758C67.3597 8.51758 68.6141 8.8286 69.7388 9.45051C70.8632 10.0552 71.7457 10.919 72.3858 12.0419C73.0433 13.1649 73.3724 14.4605 73.3724 15.929C73.3724 17.3974 73.0349 18.6932 72.3599 19.8161C71.7024 20.939 70.8031 21.8114 69.6609 22.4334C68.5362 23.038 67.2732 23.3404 65.8716 23.3404ZM65.8716 20.1789C66.5292 20.1789 67.1434 20.0233 67.7144 19.7124C68.3026 19.3841 68.7698 18.9004 69.1158 18.2612C69.4619 17.622 69.6349 16.8446 69.6349 15.929C69.6349 14.5642 69.2716 13.519 68.5449 12.7934C67.8355 12.0505 66.9617 11.6791 65.9236 11.6791C64.8854 11.6791 64.0117 12.0505 63.3022 12.7934C62.6102 13.519 62.2641 14.5642 62.2641 15.929C62.2641 17.2938 62.6015 18.3476 63.2763 19.0905C63.9684 19.8161 64.8335 20.1789 65.8716 20.1789Z" fill="#0A0A0A"></path><path d="M50.2296 23.3404C48.8453 23.3404 47.5996 23.038 46.4922 22.4334C45.3849 21.8114 44.5111 20.939 43.8709 19.8161C43.248 18.6932 42.9366 17.3974 42.9366 15.929C42.9366 14.4605 43.2567 13.1649 43.8969 12.0419C44.5543 10.919 45.4455 10.0552 46.5701 9.45051C47.6947 8.8286 48.9492 8.51758 50.3334 8.51758C51.7175 8.51758 52.972 8.8286 54.0966 9.45051C55.2213 10.0552 56.1037 10.919 56.7439 12.0419C57.4014 13.1649 57.7302 14.4605 57.7302 15.929C57.7302 17.3974 57.3927 18.6932 56.718 19.8161C56.0604 20.939 55.1607 21.8114 54.0188 22.4334C52.8941 23.038 51.631 23.3404 50.2296 23.3404ZM50.2296 20.1789C50.8871 20.1789 51.5013 20.0233 52.0723 19.7124C52.6606 19.3841 53.1277 18.9004 53.4738 18.2612C53.8198 17.622 53.9929 16.8446 53.9929 15.929C53.9929 14.5642 53.6295 13.519 52.9027 12.7934C52.1934 12.0505 51.3196 11.6791 50.2815 11.6791C49.2433 11.6791 48.3696 12.0505 47.6601 12.7934C46.968 13.519 46.622 14.5642 46.622 15.929C46.622 17.2938 46.9594 18.3476 47.6342 19.0905C48.3263 19.8161 49.1914 20.1789 50.2296 20.1789Z" fill="#0A0A0A"></path><path d="M36.4745 20.2305H42.4439V23.1069H32.841V5.01904H36.4745V20.2305Z" fill="#0A0A0A"></path><path d="M59.5374 25.0355C60.4578 27.7684 63.0447 29.737 66.092 29.737H66.4712C70.2895 29.737 73.385 26.6464 73.385 22.8339V22.4438H69.6366V22.8339C69.6366 24.5795 68.2194 25.9945 66.4712 25.9945H66.092C65.201 25.9945 64.396 25.627 63.8208 25.0355H59.5374Z" fill="#0A0A0A"></path></g><defs><clipPath id="clip0_8_378"><rect width="167" height="30" fill="white"></rect></clipPath></defs></svg>