<svg xmlns="http://www.w3.org/2000/svg" width="191" height="30" viewBox="0 0 191 30" fill="none"><g clip-path="url(#clip0_8_451)"><path d="M26.6507 1.15427C27.3125 0.46679 28.2114 0.0805664 29.1473 0.0805664C33.3584 0.0805664 37.3268 0.0805685 41.2349 0.0805764C49.095 0.0805928 53.0311 9.95216 47.4731 15.7255L35.3664 28.3013C34.8107 28.8787 33.8603 28.4697 33.8603 27.6532V16.5769L35.2594 15.1236C36.371 13.9689 35.5838 11.9946 34.0117 11.9946H16.2148L26.6507 1.15427Z" fill="#FF214A"></path><path d="M23.4243 27.4173C22.7625 28.1048 21.8636 28.491 20.9277 28.491C16.7166 28.491 12.7482 28.491 8.84015 28.491C0.979914 28.4909 -2.95611 18.6194 2.6019 12.846L14.7086 0.270264C15.2643 -0.307077 16.2147 0.101819 16.2147 0.9183L16.2148 11.9945L14.8156 13.4479C13.704 14.6026 14.4912 16.5769 16.0633 16.5769L33.8603 16.5769L23.4243 27.4173Z" fill="#0A0A0A"></path><path d="M120.288 9.6001V23.8821H124.488V9.6001H120.288Z" fill="#0A0A0A"></path><path d="M120.58 7.22386C121.077 7.71936 121.683 7.96715 122.402 7.96715C123.119 7.96715 123.722 7.71936 124.209 7.22386C124.706 6.72831 124.954 6.12658 124.954 5.41868C124.954 4.69307 124.706 4.08692 124.209 3.60024C123.722 3.1047 123.119 2.85693 122.402 2.85693C121.683 2.85693 121.077 3.1047 120.58 3.60024C120.084 4.08692 119.836 4.69307 119.836 5.41868C119.836 6.12658 120.084 6.72831 120.58 7.22386Z" fill="#0A0A0A"></path><path fill-rule="evenodd" clip-rule="evenodd" d="M126.858 29.4566V9.59977H130.846V11.02H130.899C131.15 10.7728 131.42 10.5472 131.711 10.3431C132.65 9.6882 133.731 9.36084 134.954 9.36084C136.026 9.36084 137.05 9.63955 138.025 10.1971C139.009 10.7545 139.806 11.5819 140.418 12.6791C141.029 13.7764 141.326 15.1436 141.309 16.7806C141.317 18.0194 141.144 19.099 140.79 20.0193C140.435 20.9307 139.957 21.6873 139.354 22.289C138.752 22.8907 138.078 23.342 137.333 23.6428C136.589 23.9437 135.836 24.0941 135.073 24.0941C133.868 24.0941 132.787 23.7579 131.83 23.0854C131.589 22.9138 131.361 22.7281 131.145 22.5279H131.059V29.4566H126.858ZM134.09 20.59C134.71 20.5811 135.255 20.4175 135.725 20.0989C136.194 19.7803 136.563 19.3291 136.828 18.7451C137.094 18.161 137.223 17.4796 137.214 16.7009C137.223 15.9046 137.09 15.2232 136.815 14.6568C136.549 14.0817 136.173 13.6436 135.685 13.3428C135.198 13.0331 134.639 12.8826 134.01 12.8915C133.417 12.8826 132.884 13.0287 132.415 13.3296C131.945 13.6304 131.573 14.0684 131.299 14.6436C131.024 15.2099 130.887 15.8957 130.887 16.7009C130.887 17.4796 131.024 18.161 131.299 18.7451C131.582 19.3291 131.963 19.7803 132.442 20.0989C132.92 20.4175 133.47 20.5811 134.09 20.59Z" fill="#0A0A0A"></path><path d="M145.353 23.6565C146.133 23.9485 146.948 24.0945 147.799 24.0945C148.774 24.0945 149.665 23.9043 150.471 23.5238C151.286 23.1433 151.937 22.6123 152.425 21.931C152.922 21.2408 153.169 20.4488 153.169 19.5551C153.169 18.8471 153.019 18.2498 152.718 17.7632C152.425 17.2765 152.052 16.8783 151.601 16.5686C151.158 16.2588 150.701 16.0155 150.232 15.8386C149.762 15.6527 149.35 15.5111 148.995 15.4138C148.534 15.2811 148.092 15.1439 147.666 15.0023C147.241 14.8608 146.89 14.6926 146.616 14.4979C146.341 14.3033 146.204 14.0466 146.204 13.7281C146.204 13.4096 146.341 13.1441 146.616 12.9317C146.89 12.7193 147.236 12.6131 147.653 12.6131C148.149 12.6131 148.557 12.7458 148.876 13.0113C149.204 13.2768 149.451 13.5511 149.62 13.8343L152.85 12.4406C152.443 11.5203 151.751 10.7814 150.777 10.2239C149.811 9.66648 148.72 9.3877 147.506 9.3877C146.532 9.3877 145.663 9.56912 144.901 9.93191C144.148 10.2947 143.55 10.7991 143.106 11.4451C142.672 12.0822 142.455 12.8211 142.455 13.6617C142.455 14.4581 142.641 15.1351 143.013 15.6926C143.386 16.25 143.869 16.7101 144.463 17.073C145.065 17.4269 145.703 17.7056 146.377 17.9092C146.669 17.9888 146.988 18.0773 147.334 18.1746C147.688 18.272 148.025 18.387 148.344 18.5198C148.663 18.6525 148.924 18.8118 149.128 18.9976C149.332 19.1834 149.434 19.4046 149.434 19.6613C149.434 19.8648 149.363 20.055 149.221 20.232C149.089 20.409 148.902 20.555 148.663 20.67C148.423 20.7762 148.144 20.8293 147.825 20.8293C147.223 20.8293 146.7 20.6435 146.257 20.2718C145.814 19.9001 145.482 19.5064 145.26 19.0905L141.963 20.5373C142.264 21.2541 142.712 21.8823 143.306 22.4221C143.9 22.953 144.582 23.3645 145.353 23.6565Z" fill="#0A0A0A"></path><path d="M170.245 23.8821V9.60012H174.246V11.4186H174.319C174.633 10.9841 174.985 10.6168 175.377 10.3168C176.174 9.69741 177.118 9.3877 178.208 9.3877C179.111 9.3877 179.878 9.60891 180.508 10.0514C180.993 10.3812 181.388 10.8236 181.695 11.3787H181.77C182.223 10.8023 182.773 10.3509 183.419 10.0248C184.261 9.60012 185.178 9.3877 186.171 9.3877C187.118 9.3877 187.899 9.55584 188.51 9.89212C189.121 10.2195 189.6 10.6531 189.946 11.1929C190.291 11.7238 190.535 12.3078 190.677 12.945C190.819 13.5732 190.89 14.1838 190.89 14.7767V23.8821H186.662V15.2943C186.662 14.5156 186.498 13.9183 186.171 13.5024C185.852 13.0777 185.382 12.8653 184.761 12.8653C184.354 12.8653 183.99 12.9583 183.671 13.1441C183.361 13.3211 183.113 13.5909 182.927 13.9537C182.75 14.3166 182.661 14.7634 182.661 15.2943V23.8821H178.461V15.2943C178.461 14.5156 178.297 13.9183 177.968 13.5024C177.641 13.0777 177.166 12.8653 176.546 12.8653C175.944 12.8653 175.443 13.0733 175.044 13.4892C174.646 13.8962 174.446 14.5068 174.446 15.3209V23.8821H170.245Z" fill="#0A0A0A"></path><path d="M159.966 24.0945C158.982 24.0945 158.087 23.8865 157.281 23.4707C156.474 23.0459 155.832 22.4265 155.353 21.6124C154.884 20.7895 154.648 19.7762 154.648 18.5728V9.6001H158.849V18.0153C158.849 18.8382 159.062 19.4665 159.487 19.9001C159.921 20.3249 160.449 20.5372 161.07 20.5372C161.53 20.5372 161.934 20.4355 162.279 20.232C162.633 20.0285 162.908 19.7409 163.103 19.3692C163.307 18.9887 163.409 18.5374 163.409 18.0153V9.6001H167.609V18.8781C167.609 19.3913 167.685 19.763 167.835 19.993C167.986 20.2231 168.292 20.4222 168.752 20.5903L167.264 24.0945C166.209 23.8202 165.438 23.4618 164.951 23.0194C164.706 22.7965 164.52 22.5398 164.393 22.2495H164.286C163.915 22.6221 163.503 22.954 163.05 23.245C162.155 23.8113 161.127 24.0945 159.966 24.0945Z" fill="#0A0A0A"></path><path fill-rule="evenodd" clip-rule="evenodd" d="M111.192 24.0945C109.818 24.0945 108.564 23.7804 107.43 23.1521C106.304 22.5238 105.405 21.6566 104.731 20.5506C104.066 19.4444 103.734 18.1702 103.734 16.7278C103.734 15.2855 104.066 14.0113 104.731 12.9051C105.405 11.7991 106.304 10.9363 107.43 10.3168C108.564 9.69741 109.818 9.3877 111.192 9.3877C112.592 9.3877 113.855 9.69741 114.981 10.3168C116.106 10.9363 116.996 11.7991 117.652 12.9051C118.317 14.0113 118.649 15.2855 118.649 16.7278C118.649 18.1702 118.317 19.4444 117.652 20.5506C116.996 21.6566 116.102 22.5238 114.967 23.1521C113.842 23.7804 112.583 24.0945 111.192 24.0945ZM111.192 20.5107C111.847 20.5107 112.437 20.3515 112.96 20.0329C113.483 19.7143 113.895 19.2719 114.196 18.7056C114.497 18.1393 114.648 17.48 114.648 16.7278C114.648 16.0023 114.502 15.3563 114.209 14.7899C113.917 14.2236 113.513 13.7812 113 13.4626C112.485 13.1352 111.892 12.9715 111.218 12.9715C110.554 12.9715 109.955 13.1308 109.424 13.4493C108.901 13.7591 108.489 14.1971 108.188 14.7634C107.886 15.3297 107.735 15.9846 107.735 16.7278C107.735 17.48 107.886 18.1393 108.188 18.7056C108.497 19.2719 108.914 19.7143 109.437 20.0329C109.96 20.3515 110.545 20.5107 111.192 20.5107Z" fill="#0A0A0A"></path><path fill-rule="evenodd" clip-rule="evenodd" d="M91.3016 29.2313C92.2938 29.5233 93.384 29.6693 94.5715 29.6693C95.6795 29.6693 96.6939 29.5277 97.616 29.2446C98.5374 28.9703 99.335 28.5544 100.008 27.9969C100.691 27.4394 101.218 26.7492 101.591 25.9262C101.963 25.1033 102.149 24.1477 102.149 23.0592V9.58687H98.3335V10.9805H98.2541C98.0002 10.7379 97.7255 10.5167 97.4293 10.3169C96.5079 9.68858 95.4313 9.37451 94.1995 9.37451C93.1357 9.37451 92.1121 9.64437 91.1285 10.1842C90.1448 10.7151 89.3386 11.5115 88.7091 12.5734C88.0889 13.6264 87.7784 14.9492 87.7784 16.5421C87.7784 17.7367 87.9601 18.7764 88.3235 19.6613C88.6869 20.5462 89.1698 21.285 89.7729 21.8779C90.3845 22.4619 91.0619 22.8999 91.8066 23.1919C92.5513 23.4752 93.2996 23.6167 94.0528 23.6167C95.2675 23.6167 96.3484 23.2849 97.297 22.6212C97.5967 22.4084 97.8771 22.1739 98.1368 21.9177H98.2005V23.2982C98.2005 23.9795 97.9794 24.5282 97.5359 24.944C97.0931 25.3688 96.5566 25.6785 95.9278 25.8732C95.2983 26.0679 94.6909 26.1652 94.1065 26.1652C93.424 26.1652 92.7502 26.0546 92.0856 25.8334C91.4296 25.6209 90.8538 25.3644 90.358 25.0635L88.9752 28.3553C89.5425 28.6562 90.318 28.9482 91.3016 29.2313ZM96.7783 19.7277C96.2912 20.0462 95.7282 20.2054 95.0901 20.2054C94.4606 20.2054 93.9069 20.0462 93.4283 19.7277C92.9498 19.4002 92.5735 18.9534 92.2988 18.387C92.0241 17.8119 91.886 17.1527 91.886 16.4093C91.886 15.666 92.0241 15.02 92.2988 14.4714C92.5821 13.9228 92.9719 13.5024 93.4684 13.2104C93.9648 12.9096 94.5271 12.7592 95.1566 12.7592C95.7854 12.7592 96.3398 12.9052 96.8184 13.1972C97.297 13.4892 97.6732 13.9095 97.9479 14.4582C98.2226 14.9979 98.36 15.6483 98.36 16.4093C98.36 17.1614 98.2183 17.8252 97.9351 18.4003C97.6511 18.9667 97.2655 19.4091 96.7783 19.7277Z" fill="#0A0A0A"></path><path fill-rule="evenodd" clip-rule="evenodd" d="M79.2543 24.0945C77.8808 24.0945 76.6268 23.7804 75.4922 23.1521C74.367 22.5238 73.4671 21.6566 72.7939 20.5506C72.1293 19.4444 71.7967 18.1702 71.7967 16.7278C71.7967 15.2855 72.1293 14.0113 72.7939 12.9051C73.4671 11.7991 74.367 10.9363 75.4922 10.3168C76.6268 9.69741 77.8808 9.3877 79.2543 9.3877C80.6542 9.3877 81.9175 9.69741 83.0428 10.3168C84.1681 10.9363 85.0587 11.7991 85.7147 12.9051C86.3792 14.0113 86.7119 15.2855 86.7119 16.7278C86.7119 18.1702 86.3792 19.4444 85.7147 20.5506C85.0587 21.6566 84.1638 22.5238 83.0292 23.1521C81.904 23.7804 80.6456 24.0945 79.2543 24.0945ZM79.2543 20.5107C79.9103 20.5107 80.499 20.3515 81.0219 20.0329C81.5448 19.7143 81.9569 19.2719 82.2588 18.7056C82.5599 18.1393 82.7102 17.48 82.7102 16.7278C82.7102 16.0023 82.5642 15.3563 82.2717 14.7899C81.9791 14.2236 81.5763 13.7812 81.062 13.4626C80.5484 13.1352 79.9539 12.9715 79.2807 12.9715C78.6162 12.9715 78.0181 13.1308 77.4859 13.4493C76.963 13.7591 76.5509 14.1971 76.2498 14.7634C75.9486 15.3297 75.7977 15.9846 75.7977 16.7278C75.7977 17.48 75.9486 18.1393 76.2498 18.7056C76.5602 19.2719 76.9766 19.7143 77.4995 20.0329C78.0224 20.3515 78.6069 20.5107 79.2543 20.5107Z" fill="#0A0A0A"></path><path d="M60.4406 4.31738V23.8822H71.8596V20.0064H64.8007V4.31738H60.4406Z" fill="#0A0A0A"></path></g><defs><clipPath id="clip0_8_451"><rect width="191" height="30" fill="white"></rect></clipPath></defs></svg>