<svg xmlns="http://www.w3.org/2000/svg" width="88" height="43" viewBox="0 0 88 43" fill="none"><path opacity="0.2" d="M79.575 2.9837C80.397 4.2122 81.186 5.7277 80.798 7.3518C79.459 6.5854 78.382 5.3341 77.528 4.0988C76.668 2.8552 75.775 1.5328 75.469 0C77.158 0.432 78.67 1.6312 79.575 2.9837Z" fill="white"></path><path opacity="0.2" d="M6.98059 7.34917C6.59359 5.72477 7.38419 4.20987 8.20769 2.98207C9.11419 1.63037 10.6267 0.432265 12.3159 0.00146484C12.009 1.53396 11.1146 2.85587 10.2537 4.09867C9.39859 5.33337 8.32009 6.58387 6.98059 7.34917Z" fill="white"></path><path opacity="0.2" d="M5.80198 10.4652C6.10408 9.17876 6.09738 7.77046 5.80978 6.56386C5.55688 5.50346 5.18888 4.00446 3.97768 3.49866C3.09728 4.91086 2.74338 6.83396 3.25648 8.27496C3.62748 9.31726 4.29468 10.6954 5.67838 10.9087C6.94808 11.2014 8.23198 10.5241 9.24598 9.96486C10.3735 9.34316 11.4779 8.35406 12.1489 7.17816C10.918 6.55686 9.51618 7.06106 8.46158 7.54426C7.32478 8.06516 6.28048 9.18276 5.80198 10.4652Z" fill="white"></path><path d="M30.4431 11.701V5.24243H28.2381V7.59553H24.9306V5.24243H22.7256V11.701H24.9306V9.35623H28.2381V11.701H30.4431Z" fill="white"></path><path d="M37.7547 5.24243H40.19L36.7345 9.57013V11.701H34.5213V9.57833L31.1069 5.24243H33.6162L35.6567 7.82583L37.7547 5.24243Z" fill="white"></path><path fill-rule="evenodd" clip-rule="evenodd" d="M47.8694 5.79363C48.3055 6.13923 48.5523 6.72343 48.5523 7.57083C48.5523 8.26193 48.3795 8.78023 48.0504 9.14233C47.6061 9.65243 46.8739 9.88273 45.9195 9.89103C45.6233 9.89923 43.0892 9.89103 43.0892 9.89103V11.701H40.876V5.24243H45.8866C46.7751 5.24243 47.4498 5.42343 47.8694 5.79363ZM46.2321 8.07273C46.298 7.95753 46.3309 7.80943 46.3309 7.60373C46.3309 7.38983 46.2897 7.20883 46.2157 7.11013C46.0758 6.90443 45.8125 6.80563 45.3847 6.80563H43.0728V8.38533H45.3682C45.829 8.38533 46.1005 8.27843 46.2321 8.07273Z" fill="white"></path><path d="M56.237 10.0966V11.701H49.4331V5.24243H56.18V6.85503H51.6051V7.68603H56.048V9.25743H51.6051V10.0966H56.237Z" fill="white"></path><path fill-rule="evenodd" clip-rule="evenodd" d="M64.498 5.90063C64.795 6.20503 64.934 6.62463 64.934 7.20883C64.934 7.71073 64.811 8.13853 64.605 8.42653C64.375 8.73913 64.021 9.00243 63.585 9.06823L65.535 11.701H63.083L61.479 9.42203H59.48V11.701H57.283V5.24243H62.425C63.445 5.24243 64.112 5.48923 64.498 5.90063ZM62.721 7.75183C62.779 7.65313 62.795 7.52143 62.795 7.41453C62.795 7.29113 62.779 7.15943 62.721 7.07713C62.606 6.86323 62.376 6.80563 62.03 6.80563H59.488V7.98223H62.071C62.425 7.98223 62.639 7.91643 62.721 7.75183Z" fill="white"></path><path d="M55.059 19.8017C55.059 18.3254 54.1211 17.5495 51.9335 17.3124C51.5779 17.2693 50.5326 17.1615 49.8752 17.1076C48.1833 16.9244 47.6769 16.8275 47.6769 16.3964C47.6769 16.0085 48.0756 15.8253 49.595 15.8253C50.6727 15.8253 51.2762 16.03 51.5132 16.3425C51.6318 16.4934 51.6749 16.6119 51.6857 16.7305H54.7893C54.7569 16.4718 54.6492 16.1054 54.4767 15.7822C53.9164 14.7045 52.5693 13.8424 49.6705 13.8424C46.4052 13.8424 44.6164 14.9955 44.6164 16.5042C44.6164 17.959 45.6293 18.8103 48.3665 19.0582C48.676 19.0847 49.3407 19.1475 49.8849 19.1989L49.9185 19.2021L49.9246 19.2027L49.927 19.2029L50.2201 19.2306C51.6533 19.3815 52.0413 19.4784 52.0413 19.9311C52.0413 20.3513 51.6641 20.5776 50.08 20.5776C48.8515 20.5776 48.1295 20.3944 47.8708 20.0819C47.7631 19.9526 47.6876 19.7586 47.6661 19.6293H44.5625C44.5948 19.8448 44.6487 20.1897 44.7672 20.4699C45.2953 21.6553 46.6747 22.5605 49.8752 22.5605C53.3129 22.5605 55.059 21.5906 55.059 19.8017Z" fill="white"></path><path fill-rule="evenodd" clip-rule="evenodd" d="M33.057 21.5691C33.3803 21.1919 33.5419 20.6207 33.5419 20.0388C33.5419 19.5431 33.4126 19.0689 33.1432 18.7564C32.8199 18.3361 32.2487 18.0344 31.6453 17.959C32.0548 17.9051 32.4427 17.6896 32.669 17.4094C32.9492 17.0753 33.0785 16.6227 33.0785 16.0731C33.0785 15.5235 32.9169 15.0386 32.5505 14.6722C32.141 14.2519 31.3974 13.9717 30.2336 13.9717H22.9272V22.4312H30.4383C31.6345 22.4312 32.5613 22.1725 33.057 21.5691ZM30.0827 16.5796C30.0827 16.7844 30.018 16.9568 29.9103 17.0753C29.7594 17.2154 29.4792 17.2693 29.1128 17.2693H25.7506V15.8899H29.0374C29.4469 15.8899 29.7271 15.9438 29.8779 16.0839C30.018 16.2024 30.0827 16.3748 30.0827 16.5796ZM30.406 20.2867C30.2336 20.4483 29.9318 20.513 29.4253 20.513H25.7506V19.1013H29.4577C29.9318 19.1013 30.212 19.1659 30.3736 19.306C30.503 19.4353 30.5568 19.597 30.5568 19.8125C30.5568 20.0173 30.5137 20.1789 30.406 20.2867Z" fill="white"></path><path d="M43.6889 20.3298V22.4312H34.7769V13.9717H43.6135V16.0839H37.6218V17.1723H43.4411V19.2306H37.6218V20.3298H43.6889Z" fill="white"></path><path d="M65.545 16.0947V13.9717H55.448V16.0947H59.015V22.4312H61.967V16.0947H65.545Z" fill="white"></path><path d="M65.2891 29.9169H64.8141L64.7801 29.4594C64.6351 29.6909 64.3281 29.9688 63.6801 29.9688C62.5851 29.9688 62.076 29.3088 62.076 27.6237C62.076 26.3209 62.4001 25.2729 63.7371 25.2729C64.8961 25.2729 65.2491 26.0315 65.2661 26.8479H64.687C64.67 26.3152 64.4321 25.8231 63.7491 25.8231C62.9271 25.8231 62.6891 26.3153 62.6891 27.6413C62.6891 29.0252 62.9851 29.4594 63.7611 29.4594C64.3051 29.4594 64.6231 29.1584 64.7281 28.7994V27.9366H63.5581V27.4095H65.2831V28.7415C65.2831 29.1394 65.2871 29.564 65.2881 29.7775L65.2891 29.8792V29.9169Z" fill="white"></path><path fill-rule="evenodd" clip-rule="evenodd" d="M23.0366 28.7645H24.6579L24.9937 29.9168H25.6075L24.2641 25.3309H23.5172L22.0811 29.9168H22.6891L23.0366 28.7645ZM24.5131 28.2492H23.1929C23.1929 28.2492 23.7661 26.3963 23.7777 26.3558C23.7835 26.3268 23.8762 25.9157 23.8762 25.9157L23.9403 26.2198L23.9688 26.3558C23.9746 26.3847 24.5131 28.2492 24.5131 28.2492Z" fill="white"></path><path d="M30.0024 25.3309H30.5583L29.4755 29.9168H28.7864C28.7864 29.9168 28.0163 26.35 28.0163 26.1994C28.0105 26.35 27.223 29.9168 27.223 29.9168H26.534L25.4512 25.3309H26.0765C26.0765 25.3309 26.9161 28.9614 26.9161 29.1062C26.9161 28.9614 27.6863 25.3309 27.6863 25.3309H28.3753C28.3753 25.3309 29.1454 28.9672 29.1454 29.1062C29.1454 28.9672 30.0024 25.3309 30.0024 25.3309Z" fill="white"></path><path fill-rule="evenodd" clip-rule="evenodd" d="M32.9361 28.7645H31.3148L30.9674 29.9168H30.3594L31.7954 25.3309H32.5424L33.8858 29.9168H33.272L32.9361 28.7645ZM31.4712 28.2492H32.7914C32.7914 28.2492 32.2529 26.3847 32.2471 26.3558L32.2033 26.1471L32.1544 25.9157C32.1544 25.9157 32.0618 26.3268 32.056 26.3558C32.0444 26.3963 31.4712 28.2492 31.4712 28.2492Z" fill="white"></path><path fill-rule="evenodd" clip-rule="evenodd" d="M36.1172 25.3309C36.8236 25.3309 37.2058 25.6609 37.2058 26.6221C37.2058 27.4386 36.8989 27.7107 36.5804 27.8033L37.4606 29.9168H36.8236L36.0072 27.9192H34.8955V29.9168H34.3164V25.3309H36.1172ZM36.0304 27.398C36.4878 27.398 36.5978 27.1606 36.5978 26.6395C36.5978 26.0489 36.4241 25.8694 36.0014 25.8694H34.9012V27.398H36.0304Z" fill="white"></path><path fill-rule="evenodd" clip-rule="evenodd" d="M41.0609 27.5486C41.0609 28.6314 40.9799 29.0714 40.7483 29.4015C40.5167 29.72 40.1519 29.9168 39.5612 29.9168H37.9863V25.3309H39.5207C40.0998 25.3309 40.5514 25.5046 40.7599 25.8173C40.9915 26.1531 41.0609 26.57 41.0609 27.5486ZM39.4397 29.3725C39.7929 29.3725 40.0882 29.2799 40.2387 29.0772C40.4009 28.8572 40.4472 28.4113 40.4472 27.5486C40.4472 26.8248 40.4066 26.4368 40.2387 26.1878C40.0824 25.9736 39.7813 25.8809 39.4281 25.8809H38.5711V29.3725H39.4397Z" fill="white"></path><path d="M47.1699 25.3309H47.7258L46.643 29.9168H45.9539C45.9539 29.9168 45.1838 26.35 45.1838 26.1994C45.178 26.35 44.3905 29.9168 44.3905 29.9168H43.7015L42.6187 25.3309H43.244C43.244 25.3309 44.0836 28.9614 44.0836 29.1062C44.0836 28.9614 44.8537 25.3309 44.8537 25.3309H45.5428C45.5428 25.3309 46.3129 28.9672 46.3129 29.1062C46.3129 28.9672 47.1699 25.3309 47.1699 25.3309Z" fill="white"></path><path d="M48.7497 25.3309V29.9168H48.1475V25.3309H48.7497Z" fill="white"></path><path d="M52.5193 25.3309V29.9168H51.8534L50.1452 26.3615V29.9168H49.5835V25.3309H50.2842L51.9518 28.834V25.3309H52.5193Z" fill="white"></path><path d="M56.274 25.3309V29.9168H55.608L53.9001 26.3615V29.9168H53.3384V25.3309H54.0391L55.707 28.834V25.3309H56.274Z" fill="white"></path><path d="M57.695 25.3309V29.9168H57.093V25.3309H57.695Z" fill="white"></path><path d="M61.465 25.3309V29.9168H60.7991L59.0911 26.3615V29.9168H58.5291V25.3309H59.2301L60.8981 28.834V25.3309H61.465Z" fill="white"></path><path d="M29.5554 38.9554L28.8919 36.9132L28.2283 38.9554H26.0811L27.8182 40.2176L27.1547 42.2598L28.8919 40.9976L30.6291 42.2598L29.9655 40.2176L31.7027 38.9554H29.5554Z" fill="white"></path><path d="M37.2289 38.9557L36.5518 36.9135L35.8747 38.9557H33.6836L35.4563 40.2178L34.7792 42.26L36.5518 40.9979L38.3245 42.26L37.6474 40.2178L39.42 38.9557H37.2289Z" fill="white"></path><path d="M44.829 38.9557L44.1519 36.9135L43.4748 38.9557H41.2837L43.0563 40.2178L42.3792 42.26L44.1519 40.9979L45.9245 42.26L45.2474 40.2178L47.0201 38.9557H44.829Z" fill="white"></path><path d="M52.4286 38.9557L51.7515 36.9135L51.0744 38.9557H48.8833L50.6559 40.2178L49.9788 42.26L51.7515 40.9979L53.5241 42.26L52.847 40.2178L54.6197 38.9557H52.4286Z" fill="white"></path><path d="M60.075 38.9557L59.412 36.9135L58.748 38.9557H56.601L58.338 40.2178L57.675 42.26L59.412 40.9979L61.149 42.26L60.485 40.2178L62.223 38.9557H60.075Z" fill="white"></path><path opacity="0.2" d="M1.8923 13.9365C2.5167 14.8891 3.48291 16.0823 4.89171 16.0483C6.17281 16.1123 7.2796 15.238 8.1512 14.5083C9.0899 13.7224 9.9372 12.5731 10.2949 11.3306C8.9846 10.9494 7.73011 11.6556 6.79461 12.3217C5.81771 13.0174 5.0664 14.2906 4.905 15.5979C4.8929 14.2882 4.5384 12.9355 3.9669 11.8458C3.4444 10.8496 2.71631 9.50296 1.41731 9.23376C0.905506 10.7839 1.0688 12.6805 1.8923 13.9365Z" fill="white"></path><path opacity="0.2" d="M5.30843 21.1789C4.00093 21.398 2.72553 20.5969 1.89723 19.6546C0.830832 18.4414 0.196329 16.8139 0.325729 15.1846C1.66893 15.2187 2.68623 16.3798 3.43813 17.2578C4.24793 18.2034 4.91143 19.4475 5.22973 20.7309C5.08973 19.4519 5.51913 18.0708 6.31623 17.2174C7.08563 16.3936 8.16343 15.4958 9.50443 15.6399C9.47553 16.9368 8.82543 18.1724 8.15493 19.0978C7.52993 19.9602 6.56713 21.0269 5.30843 21.1789Z" fill="white"></path><path opacity="0.2" d="M2.8931 25.4883C4.0973 26.2723 5.5578 27.0483 7.0927 26.461C8.3519 26.0155 9.1525 24.748 9.6449 23.5846C10.1665 22.3519 10.5149 20.9305 10.2737 19.5813C8.89 19.7041 7.7426 20.6941 7.1332 21.9026C6.4961 23.166 6.3739 24.6698 6.8633 25.9944C6.1402 24.6317 5.0827 23.5291 3.9625 22.5103C2.9442 21.5842 1.4774 20.6086 0 20.7921C0.2811 22.6186 1.3957 24.5135 2.8931 25.4883Z" fill="white"></path><path opacity="0.2" d="M10.1945 31.3988C11.3795 30.6904 11.8564 29.1998 12.0513 27.9225C12.2614 26.545 12.2524 25.0258 11.6803 23.719C10.3055 24.103 9.36178 25.3404 9.05018 26.6957C8.72098 28.1276 8.99878 29.6537 9.79958 30.8729C8.73508 29.6516 7.31958 28.6432 5.96308 27.9361C4.65278 27.2531 3.04528 26.4293 1.47168 26.9268C2.23048 28.7787 3.85368 30.5029 5.65268 31.2161C7.04588 31.7683 8.74078 32.3144 10.1945 31.3988Z" fill="white"></path><path opacity="0.2" d="M15.8123 31.8782C15.9862 33.2078 15.9813 34.8942 14.949 35.9176C13.659 37.238 11.6626 36.9832 10.1228 36.6927C8.05564 36.3024 5.72865 34.8925 4.48145 33.0152C6.00465 32.1765 7.86755 32.713 9.37555 33.1473L9.46165 33.172C11.1449 33.6563 12.9387 34.4363 14.4389 35.5021C13.2417 34.4203 12.3694 32.8325 12.3267 31.2321C12.2883 29.8007 12.9096 28.2693 14.2466 27.587C15.18 28.8121 15.6171 30.385 15.8123 31.8782Z" fill="white"></path><path opacity="0.2" d="M21.8034 39.6824C22.5636 38.2353 21.8104 36.5369 21.2102 35.2816C20.5006 33.7976 19.5311 32.2852 18.1436 31.199C16.8113 32.3472 16.938 33.9901 17.3341 35.4179C17.8051 37.1156 19.438 38.5628 21.1289 39.3875C19.1706 38.6572 17.0319 38.2189 14.9971 38.0895L14.791 38.0762C13.1563 37.9697 11.0282 37.8311 9.72559 39.0274C11.6951 40.7017 14.4926 41.6677 16.9582 41.6175C18.6105 41.5839 20.8775 41.3884 21.8034 39.6824Z" fill="white"></path><path opacity="0.2" d="M81.974 10.4697C81.497 9.18645 80.453 8.06745 79.317 7.54555C78.262 7.06155 76.861 6.55645 75.63 7.17665C76.3 8.35305 77.403 9.34295 78.53 9.96555C79.543 10.5253 80.826 11.2036 82.096 10.9121C83.48 10.7001 84.149 9.32225 84.521 8.27995C85.036 6.83965 84.684 4.91615 83.805 3.50305C82.593 4.00815 82.223 5.50675 81.97 6.56705C81.681 7.77395 81.673 9.18275 81.974 10.4697Z" fill="white"></path><path opacity="0.2" d="M80.979 12.3244C81.955 13.0204 82.704 14.2929 82.865 15.5993C82.879 14.2903 83.235 12.9389 83.807 11.8503C84.33 10.8544 85.06 9.50841 86.359 9.24011C86.869 10.7907 86.704 12.6872 85.879 13.9425C85.255 14.8934 84.289 16.0841 82.883 16.0522C81.6 16.1177 80.492 15.2413 79.62 14.5101C78.682 13.7234 77.836 12.5735 77.48 11.3308C78.79 10.9504 80.044 11.6576 80.979 12.3244Z" fill="white"></path><path opacity="0.2" d="M82.535 20.7394C82.678 19.4593 82.25 18.0753 81.452 17.2202C80.684 16.3958 79.607 15.4972 78.266 15.6403C78.293 16.9372 78.942 18.1734 79.612 19.0993C80.236 19.9618 81.197 21.0285 82.455 21.1822C83.763 21.4037 85.04 20.603 85.87 19.6608C86.937 18.4485 87.573 16.8215 87.446 15.192C86.102 15.2252 85.084 16.3854 84.331 17.2628C83.519 18.209 82.854 19.4545 82.535 20.7394Z" fill="white"></path><path opacity="0.2" d="M80.631 21.905C81.267 23.1691 81.388 24.6732 80.897 25.9974C81.621 24.6349 82.68 23.533 83.801 22.5149C84.82 21.5895 86.288 20.6152 87.765 20.7997C87.483 22.6261 86.366 24.5202 84.868 25.4938C83.664 26.2758 82.205 27.0502 80.672 26.4653C79.411 26.0206 78.61 24.7505 78.118 23.5851C77.597 22.352 77.25 20.9304 77.493 19.5813C78.876 19.7052 80.023 20.6961 80.631 21.905Z" fill="white"></path><path opacity="0.2" d="M77.958 30.8706C78.758 29.6526 79.037 28.128 78.71 26.6968C78.4 25.3412 77.457 24.1031 76.082 23.7181C75.509 25.0243 75.499 26.5434 75.707 27.9212C75.901 29.196 76.375 30.6836 77.553 31.3946C79.008 32.3174 80.707 31.7716 82.102 31.2196C83.902 30.5077 85.527 28.7847 86.287 26.9332C84.714 26.4347 83.106 27.2573 81.795 27.9393C80.439 28.645 79.023 29.6513 77.958 30.8706Z" fill="white"></path><path opacity="0.2" d="M71.9421 31.8743C71.7671 33.2036 71.7701 34.8899 72.8021 35.9142C74.0901 37.2356 76.0871 36.9822 77.6271 36.6927C79.6951 36.304 82.0231 34.8956 83.2721 33.0194C81.7501 32.1797 79.8861 32.7146 78.3781 33.1477L78.2911 33.1725C76.6081 33.6553 74.8141 34.4337 73.3131 35.4979C74.5111 34.417 75.3841 32.8305 75.4281 31.2307C75.4681 29.7994 74.8481 28.2675 73.5121 27.5841C72.5771 28.8085 72.1391 30.3812 71.9421 31.8743Z" fill="white"></path><path opacity="0.2" d="M70.787 41.6126C69.135 41.5777 66.868 41.3806 65.944 39.6738L65.931 39.6504C65.193 38.2077 65.943 36.5215 66.541 35.2736C67.252 33.7901 68.223 32.2784 69.611 31.1934C70.943 32.3425 70.814 33.9853 70.417 35.4127C69.944 37.1101 68.31 38.5563 66.618 39.3796C68.577 38.6508 70.716 38.2141 72.751 38.0861L72.958 38.0729C74.593 37.9677 76.721 37.8309 78.022 39.0279C76.051 40.7005 73.253 41.6646 70.787 41.6126Z" fill="white"></path></svg>