<svg xmlns="http://www.w3.org/2000/svg" width="136" height="30" viewBox="0 0 136 30" fill="none"><g clip-path="url(#clip0_8_438)"><path fill-rule="evenodd" clip-rule="evenodd" d="M43.167 1.99653C43.167 0.979906 43.9995 0.155762 45.0266 0.155762H48.2662C48.9972 0.155762 49.7056 0.406517 50.2708 0.865343L51.2563 1.6653L51.2809 1.68756C51.3037 1.67996 51.3264 1.67254 51.3492 1.6653C53.1272 1.1016 55.2843 0.994401 57.486 0.994401C59.6876 0.994401 61.8448 1.1016 63.6227 1.6653C63.6455 1.67254 63.6683 1.67996 63.691 1.68756L63.7156 1.6653L64.7011 0.865343C65.2663 0.406517 65.9748 0.155762 66.7057 0.155762H69.9453C70.9724 0.155762 71.8049 0.979906 71.8049 1.99653V3.13447C71.8049 4.0149 71.4303 4.8546 70.7728 5.44757L69.9778 6.16464C69.5897 6.5147 69.1238 6.76947 68.6179 6.90836L68.4298 6.95999C69.1665 8.69994 69.5734 10.5598 69.5734 12.0643C69.5734 18.1166 65.7904 20.7304 62.4571 23.0336C59.832 24.8473 57.486 26.4683 57.486 29.4241C57.486 26.4683 55.1399 24.8473 52.5149 23.0336C49.1816 20.7304 45.3985 18.1166 45.3985 12.0643C45.3985 10.5598 45.8055 8.69994 46.5421 6.95999L46.3541 6.90836C45.8481 6.76947 45.3823 6.5147 44.9941 6.16464L44.1991 5.44757C43.5416 4.8546 43.167 4.0149 43.167 3.13447V1.99653ZM59.9035 17.0123C59.9035 17.3015 59.7761 17.5787 59.5494 17.7832C59.3228 17.9876 59.0153 18.1025 58.6947 18.1025C58.4179 18.1025 58.1509 18.0168 57.9373 17.8619C58.3009 18.8255 59.2317 19.7386 60.6473 18.2702C61.897 16.9058 60.5917 14.0281 59.3201 12.3204C58.8962 11.7512 58.2003 11.4773 57.486 11.4773C56.7716 11.4773 56.0757 11.7512 55.6519 12.3204C54.3802 14.0281 53.0749 16.9058 54.3246 18.2702C55.7403 19.7386 56.671 18.8255 57.0347 17.8619C56.821 18.0168 56.554 18.1025 56.2772 18.1025C55.9566 18.1025 55.6492 17.9876 55.4225 17.7832C55.1958 17.5787 55.0685 17.3015 55.0685 17.0123H59.9035ZM52.8571 8.49367H49.4897L52.1435 10.5971C52.7275 11.0599 53.5811 10.912 53.9424 10.2853C54.3987 9.49399 53.7927 8.49367 52.8571 8.49367ZM62.1149 8.49367H65.4823L62.8284 10.5971C62.2444 11.0599 61.3908 10.912 61.0295 10.2853C60.5732 9.49399 61.1792 8.49367 62.1149 8.49367Z" fill="#72B800"></path><path d="M75.8163 20.8875H78.7996V9.62654H75.8163V20.8875ZM75.8163 7.87044H78.7996V5.19238H75.8163V7.87044Z" fill="#0A0A0A"></path><path d="M80.7219 24.5754H83.7051V19.6145H83.749C84.3851 20.5803 85.4161 21.2169 86.9954 21.2169C89.8909 21.2169 91.8651 18.912 91.8651 15.2681C91.8651 11.7559 89.9567 9.31934 86.9735 9.31934C85.438 9.31934 84.3851 10.0437 83.6612 11.0315H83.5954V9.62665H80.7219V24.5754ZM86.3593 18.7364C84.5825 18.7364 83.6393 17.3974 83.6393 15.3559C83.6393 13.3364 84.3851 11.734 86.2496 11.734C88.0922 11.734 88.838 13.2267 88.838 15.3559C88.838 17.4852 87.8728 18.7364 86.3593 18.7364Z" fill="#0A0A0A"></path><path d="M97.8162 21.2169C100.624 21.2169 102.554 19.8559 102.554 17.5949C102.554 14.9608 100.47 14.434 98.5839 14.0388C96.9826 13.7096 95.491 13.6218 95.491 12.6559C95.491 11.8437 96.2588 11.4047 97.4213 11.4047C98.6936 11.4047 99.4613 11.8437 99.5929 13.051H102.291C102.072 10.7901 100.427 9.31934 97.4652 9.31934C94.8988 9.31934 92.8807 10.4828 92.8807 12.9193C92.8807 15.3779 94.8549 15.9267 96.873 16.3218C98.4084 16.6291 99.8342 16.7388 99.8342 17.8145C99.8342 18.6047 99.0884 19.1096 97.7723 19.1096C96.4342 19.1096 95.513 18.5388 95.3155 17.2437H92.5517C92.7272 19.6364 94.5478 21.2169 97.8162 21.2169Z" fill="#0A0A0A"></path><path d="M113.881 20.8874V9.62646H110.898V16.124C110.898 17.6167 110.042 18.6704 108.638 18.6704C107.366 18.6704 106.774 17.946 106.774 16.6289V9.62646H103.813V17.1338C103.813 19.5923 105.216 21.1948 107.717 21.1948C109.296 21.1948 110.174 20.6021 110.942 19.5704H111.007V20.8874H113.881Z" fill="#0A0A0A"></path><path d="M115.811 20.8876H118.794V14.3462C118.794 12.8535 119.605 11.8876 120.812 11.8876C121.909 11.8876 122.545 12.5462 122.545 13.8193V20.8876H125.528V14.3462C125.528 12.8535 126.296 11.8876 127.546 11.8876C128.643 11.8876 129.279 12.5462 129.279 13.8193V20.8876H132.262V13.3145C132.262 10.8559 130.924 9.31934 128.555 9.31934C127.129 9.31934 125.945 10.0657 125.177 11.2949H125.133C124.585 10.1096 123.444 9.31934 122.018 9.31934C120.461 9.31934 119.364 10.1096 118.75 11.1413H118.684V9.62665H115.811V20.8876Z" fill="#0A0A0A"></path><path d="M0.500183 20.8875H3.48341V5.19238H0.500183V20.8875Z" fill="#0A0A0A"></path><path d="M10.7779 21.2169C14.2656 21.2169 16.6566 18.6267 16.6566 15.2681C16.6566 11.9096 14.2656 9.31934 10.7779 9.31934C7.29008 9.31934 4.89911 11.9096 4.89911 15.2681C4.89911 18.6267 7.29008 21.2169 10.7779 21.2169ZM10.7779 18.934C8.93528 18.934 7.92624 17.4632 7.92624 15.2681C7.92624 13.073 8.93528 11.5803 10.7779 11.5803C12.5985 11.5803 13.6295 13.073 13.6295 15.2681C13.6295 17.4632 12.5985 18.934 10.7779 18.934Z" fill="#0A0A0A"></path><path d="M23.0007 24.7291C24.6678 24.7291 26.1155 24.334 27.0587 23.4559C27.8923 22.6876 28.3968 21.612 28.3968 20.0315V9.62665H25.5233V10.812H25.4794C24.7994 9.86812 23.7684 9.31934 22.3646 9.31934C19.5129 9.31934 17.4949 11.4706 17.4949 14.8291C17.4949 18.2315 19.9516 20.2071 22.4523 20.2071C23.8781 20.2071 24.7336 19.6364 25.3916 18.8901H25.4575V20.1193C25.4575 21.6559 24.6458 22.4681 22.9568 22.4681C21.5749 22.4681 20.9387 21.9193 20.6975 21.2169H17.7362C18.0433 23.412 19.9297 24.7291 23.0007 24.7291ZM22.9568 17.8145C21.4213 17.8145 20.4123 16.6949 20.4123 14.7852C20.4123 12.8974 21.4213 11.712 22.9349 11.712C24.7336 11.712 25.611 13.1169 25.611 14.7632C25.611 16.4315 24.8433 17.8145 22.9568 17.8145Z" fill="#0A0A0A"></path><path d="M35.648 21.2169C39.1358 21.2169 41.5267 18.6267 41.5267 15.2681C41.5267 11.9096 39.1358 9.31934 35.648 9.31934C32.1603 9.31934 29.7693 11.9096 29.7693 15.2681C29.7693 18.6267 32.1603 21.2169 35.648 21.2169ZM35.648 18.934C33.8054 18.934 32.7964 17.4632 32.7964 15.2681C32.7964 13.073 33.8054 11.5803 35.648 11.5803C37.4687 11.5803 38.4996 13.073 38.4996 15.2681C38.4996 17.4632 37.4687 18.934 35.648 18.934Z" fill="#0A0A0A"></path><path d="M132.128 7.16805C132.128 6.66291 132.536 6.25342 133.042 6.25342H134.87C135.374 6.25342 135.784 6.66291 135.784 7.16805C135.784 7.67316 135.374 8.08269 134.87 8.08269H133.042C132.536 8.08269 132.128 7.67316 132.128 7.16805Z" fill="#0A0A0A"></path></g><defs><clipPath id="clip0_8_438"><rect width="136" height="30" fill="white"></rect></clipPath></defs></svg>